<?xml version="1.0" standalone="no"?><!DOCTYPE svg PUBLIC "-//W3C//DTD SVG 1.1//EN" "http://www.w3.org/Graphics/SVG/1.1/DTD/svg11.dtd"><svg t="1610627557550" class="icon" viewBox="0 0 1024 1024" version="1.1" xmlns="http://www.w3.org/2000/svg" p-id="82190" xmlns:xlink="http://www.w3.org/1999/xlink" width="200" height="200"><defs><style type="text/css"></style></defs><path d="M951.42 474.39c-29.29-18.46-64.05-41.49-68.66-46-2.66-3.25-6.1-6.7-10.09-10.68 0 0-1.03-1.02-1.69-1.68-0.02-0.02-0.03-0.04-0.05-0.06-1.37-1.38-2.79-2.82-4.16-4.24 0-0.01-0.01-0.01-0.02-0.02l-0.32-0.34c-0.73-0.79-3.13-3.36-3.95-4.28l-1.41-1.62c-0.81-0.95-1.56-1.91-2.69-3.38l-0.6-0.79c-0.01-0.02-0.02-0.04-0.04-0.05 8.94-31.03 2.09-62.27-20.76-93-32.37-43.53-77.29-90.3-165.09-107.18-76.03-14.62-151.21-23.7-196.2-23.7-2.67 0-5.24 0.03-7.69 0.09-45.43 1.17-91.66 9.04-181.68 44.62-0.69 0.27-1.35 0.59-2 0.94l-3.6 2.03c-47 26.82-105.13 64.06-115.16 89.13-6.93 17.33-11.56 43.86-8.04 68l-82.14 47.21a16.926 16.926 0 0 0-8.49 14.1c-0.17 4.55-0.34 27.58 11.62 42.54 0.24 0.32 0.48 0.64 0.75 0.94 1.36 1.6 2.96 3.05 4.67 4.43 0.23 0.18 0.4 0.42 0.63 0.6 0.57 0.44 1.16 0.87 1.77 1.27 0.01 0 0.02 0 0.02 0.01 0.02 0.01 0.03 0.02 0.04 0.03 0.18 0.12 1.02 0.63 1.2 0.75 1.56 0.96 3.12 1.76 4.7 2.42 1.1 0.46 2.25-0.07 3.39 0.26 0.48 0.14 0.94-0.38 1.43-0.38h0.04c0.87 0 1.72 1.22 2.58 1.4-4.45 6.56-7.73 14.57-7.29 22.79 0.43 8.14 4.48 15.68 11.38 20.86 7.96 5.97 21.45 15.92 37.97 20.35 0 0.04 0.32 0.18 0.32 0.22v0.17c0 2.27 0 4.57 0.16 6.87 0 0.02-0.16 0.92-0.16 0.92V570.05c0 17.93 4.68 30.97 10.29 40.02-3.45 8.12-4.79 16.14-3.72 23.63 0.68 4.76 2.3 9.56 4.66 14.26-25.69 38.76-26.35 43.12-26.94 47.3-0.08 0.58-0.25 1.18-0.41 1.79l-0.72 2.62c-0.56 1.99-0.36 3.92-0.68 5.5-0.03 0.14 0.57 0.73 0.57 0.88v0.04c0 0.14-0.79 0.29-0.81 0.41-0.02 0.12-0.37 0.24-0.38 0.36-0.17 1.03 0.48 2.03 0.42 3.05-0.02 0.38 0.77 1.38 0.77 1.76V711.85c0 0.5-0.84 0.95-0.79 1.44 0.05 1.24-0.3 2.49 0.03 3.74 0.13 0.48 0.07 1.09 0.28 1.68 0.04 0.1-0.04 0.18-0.01 0.28 0.15 0.42 0.25 0.85 0.4 1.18 0.02 0.03 0 0.06 0.02 0.1 0.02 0.04 0.03 0.12 0.05 0.16 0.05 0.11 0.13 0.19 0.19 0.29 0.54 1.09 1.21 2.14 2 3.14 0.1 0.14 0.24 0.26 0.34 0.4 0.01 0.02 0.02 0.03 0.04 0.05 0.1 0.11 0.19 0.23 0.29 0.34 0.36 0.42 0.67 0.86 1.09 1.27 0.08 0.08 0.19 0.15 0.27 0.24 0.07 0.06 0.12 0.14 0.18 0.2 0.1 0.09 0.23 0.15 0.33 0.24 1 0.9 2.13 1.75 3.27 2.4 0.07 0.04 0.12 0.1 0.19 0.14 0.02 0.01 0.04 0.01 0.07 0.03 0.02 0.01 0.04 0.03 0.06 0.04 0.67 0.36 1.41 0.53 2.11 0.81 0.6 0.22 1.18 0.53 1.79 0.68 0.24 0.07 0.45 0.21 0.69 0.27-2.28 11.82-1.68 22.73 2.04 32.24 11.61 29.68 63.6 82.97 184.77 94.4 29.31 2.76 64.91 4.17 105.81 4.17 112.31 0 227.82-10.4 240.62-11.58 57.11-5.29 155.99-27.44 172.36-35.62 12.8-6.4 43.18-32.47 45.29-51.43 0.67-6.05 0.59-18.72-0.48-32 0.69-0.76 1.39-1.5 2.04-2.34 0-0.01 0.01-0.02 0.02-0.02 0.54-0.72 1.88-1.45 2.21-2.03 1.09-1.66 3.73-3.37 3.73-5.17v-0.02c0-0.01-0.83-1.51-0.83-1.52 0.23-0.53 0.51-3.26 0.76-3.26h0.07v2.95c0-0.03-0.46-0.05-0.45-0.08 0.02-0.06-0.2-0.13-0.17-0.19 0.46-1.2 0.76-2.41 1.11-3.64 0.07-0.23 0.34-1.55 0.34-1.55 0.01-0.03-0.02-0.06-0.02-0.09 0.01-0.04-0.5-0.07-0.49-0.11 0.02-0.07-0.33-0.86-0.33-0.93v-0.01c0-0.13 0.66-0.72 0.67-0.78 0.34-1.75 0.85-3.51 1.01-5.26 0.02-0.18 0.15-0.36 0.16-0.53 0.44-5.37 0.18-10.24-0.22-14.33-0.99-10.4-17.12-45.04-26.66-64.75-0.93-1.92-2.39-4.29-4.16-6.89-0.03-0.13-0.03-0.28-0.07-0.41l-4.65-49.07c0.28-1.3 0.57-2.56 0.83-4.1 1.3-7.81 1.93-16.11 2.01-24.5 4.03-0.43 8.2-0.64 12.35-0.64 0 0 12.27 0.11 14.97 0.11 5 0 10.16-0.1 15.51-0.47 23.66-1.63 28.82-15.33 30.64-25.5 0.14-0.79 0.2-1.65 0.21-1.97 5.71-6.75 12.04-10.7 12.04-10.7 5.04-3.03 8.15-8.47 8.21-14.35 0.09-5.98-2.9-11.48-7.88-14.61z" p-id="82191"></path><path d="M861.7 718.48c-4.37-2.84-11.19-12.45-17.15-20.21-2.48 3.85-5.03 7.6-7.61 10.83-12.71 15.89-62.71 35.82-155.95 50.66-29.72 4.73-74.56 7.14-125.1 7.71-4.23 5.95-7.56 10.93-9.42 13.88-7.77 12.36-22.96 11.65-39.91 3.18-2.14-3.58-9.03-9.79-18.5-17.34-91.67-1.65-188.19-8.17-242.93-17.43-46.49-7.86-68-23.53-77.75-38.12-1.75 0.23-3.43 0.46-5.03 0.66-5.88 11.8-12.31 29.8-6.48 44.68 9.54 24.37 58.27 73.11 170.58 83.7 112.31 10.6 286.06-2.12 343.28-7.42 57.21-5.3 153.63-27.55 166.34-33.9s34.96-28.61 36.02-38.14c0.62-5.54 0.51-21.47-1.35-37.37-5.22 3.18-3.43-1.73-9.04-5.37z" fill="#F08E27" p-id="82192"></path><path d="M726.95 735.78c-37.9 8.29-94.02 11.61-156.3 12.01a469.595 469.595 0 0 0-14.75 19.67c50.54-0.56 95.38-2.98 125.1-7.71 93.24-14.83 143.23-34.76 155.95-50.66 2.58-3.23 5.13-6.98 7.61-10.83-2.93-3.82-5.67-7.23-7.76-9.1-2.43-2.16-7.18-3.96-13.32-5.42-1.42 8.26-3.46 15.64-6.46 20.1-10.61 15.74-22.26 17.11-90.07 31.94zM417.58 744.26c-115.49-5.3-165.28-22.25-192.83-36.02-2.13-1.06-4.01-2.21-5.79-3.41-19.17 2.47-37.63 4.95-51.57 6.8 9.75 14.59 31.26 30.25 77.75 38.12 54.74 9.26 151.26 15.78 242.93 17.43-7.99-6.37-17.82-13.69-28.25-21.21-14.15-0.5-28.28-1.07-42.24-1.71z" fill="#D47D21" p-id="82193"></path><path d="M570.65 747.79c62.28-0.4 118.4-3.72 156.3-12.01 67.81-14.83 79.46-16.2 90.06-31.94 3-4.46 5.04-11.84 6.46-20.1-9.89-2.35-23.46-3.81-37.19-4.47-20.21-0.96-89.74-1.63-110.06-0.15-1.65 0.19-3.33 0.39-5.01 0.58-10.54 2.39-44.37 22.25-63.99 32.06-10.37 5.2-24.42 20.68-36.57 36.03zM417.58 744.26c13.97 0.64 28.09 1.22 42.25 1.71-32.18-23.2-69.95-48.23-76.15-52.57-10.6-7.42-43.44 2.12-74.16 2.12-15.12 0-54.09 4.62-90.55 9.31 1.78 1.19 3.66 2.34 5.79 3.41 27.53 13.77 77.33 30.72 192.82 36.02z" fill="#3EAE22" p-id="82194"></path><path d="M880.75 710.29c-0.26 1.1-0.62 2.18-1.03 3.24 0.41-1.07 0.76-2.14 1.03-3.24zM140.35 709.17c0.02-0.15 0.04-0.29 0.07-0.45-0.03 0.15-0.04 0.3-0.07 0.45zM749.78 668.46c19.73-0.85 37.15-1.04 45.9 0.22 24.51 3.53 47.11 16.24 56.29 26.84 9.18 10.6 11.29 18.53 19.78 17.66 3.84-0.39 7.19-3.91 9.76-7.63a34.54 34.54 0 0 1-0.61 4.02c1.22-5.72 0.78-11.69 0.38-15.82-0.71-7.42-19.78-48.03-25.08-58.98-1.03-2.13-3.22-5.41-6.18-9.35-1.51 1.55-5.29 4.77-14.37 11.47-17.16 12.66-44.03 23.41-85.87 31.57zM141.42 714.19c-0.14-0.08-0.23-0.21-0.35-0.31 0.12 0.11 0.2 0.23 0.35 0.31zM140.13 711.46c0-0.2-0.01-0.41 0-0.63-0.01 0.22 0 0.43 0 0.63zM877.05 718.43c-0.89 1.17-1.92 2.26-3.18 3.23 1.25-0.97 2.28-2.07 3.18-3.23zM140.45 713.12c-0.07-0.16-0.12-0.34-0.17-0.53 0.05 0.19 0.1 0.38 0.17 0.53zM879.29 714.61c-0.43 0.96-0.98 1.87-1.57 2.76 0.59-0.89 1.14-1.79 1.57-2.76zM481.15 750.61c9.89 9.89 35.32 34.62 45.21 28.96 9.89-5.65 14.13-5.65 20.48-14.13s45.2-55.8 54.39-61.45c5.63-3.46 17.12-12.75 30.2-19.92-52.82 5.48-108.52 10.03-134.03 10.03-19.27 0-60.84-2.46-105.99-5.64 21.64 12.95 80.96 53.38 89.74 62.15zM293.97 684.92c5.16 0 17.12-0.75 30.78-1.44-34.57-2.71-65.72-5.33-84.46-7.04-36.52-3.32-56.75-15.88-66.77-28.26-13.2 19.68-29.72 45.01-30.35 49.45-0.17 1.15-0.45 2.36-0.76 3.58 35.25-4.13 139.83-16.29 151.56-16.29z" fill="#FEC854" p-id="82195"></path><path d="M871.75 713.18c-8.49 0.87-10.59-7.06-19.78-17.66-9.18-10.59-31.78-23.31-56.29-26.84-8.75-1.26-26.17-1.07-45.9-0.22-6.75 1.32-13.86 2.57-21.42 3.75-13.43 2.09-31.66 4.49-52.14 6.91 20.31-1.47 89.85-0.81 110.06 0.15 13.73 0.65 27.29 2.12 37.19 4.47 6.14 1.46 10.88 3.26 13.32 5.42 2.1 1.87 4.83 5.28 7.76 9.1 5.96 7.76 12.78 17.37 17.15 20.21 5.61 3.65 3.82 8.55 9.05 5.36 0.85-0.52 1.84-1.2 3.12-2.19 1.25-0.96 2.28-2.06 3.18-3.23 0.26-0.33 0.44-0.71 0.67-1.06 0.59-0.89 1.14-1.8 1.57-2.76 0.16-0.36 0.28-0.72 0.42-1.09 0.41-1.06 0.77-2.14 1.03-3.24l0.15-0.71c0.28-1.34 0.5-2.68 0.61-4.02-2.56 3.74-5.91 7.26-9.75 7.65zM218.96 704.83c36.45-4.69 75.43-9.31 90.55-9.31 30.73 0 63.57-9.54 74.16-2.12 6.2 4.34 43.97 29.37 76.15 52.57 10.43 7.52 20.26 14.84 28.25 21.21 9.47 7.55 16.36 13.77 18.5 17.34 16.95 8.48 32.14 9.18 39.91-3.18 1.85-2.95 5.19-7.93 9.42-13.88 4.18-5.9 9.27-12.76 14.75-19.67 12.15-15.34 26.2-30.83 36.58-36.02 19.62-9.81 53.45-29.67 63.99-32.06-12.7 1.48-26.14 2.95-39.8 4.37-13.08 7.17-24.57 16.46-30.2 19.92-9.18 5.65-48.03 52.97-54.39 61.45s-10.59 8.48-20.48 14.13-35.32-19.07-45.21-28.96c-8.77-8.78-68.09-49.2-89.74-62.15-22.09-1.56-45.04-3.28-66.65-4.98-13.66 0.68-25.62 1.44-30.78 1.44-11.72 0-116.31 12.16-151.56 16.29-0.67 2.62-1.52 5.26-1.98 7.5-0.03 0.15-0.05 0.3-0.07 0.45-0.11 0.59-0.18 1.15-0.22 1.66-0.01 0.22-0.01 0.43 0 0.63 0 0.41 0.06 0.79 0.15 1.13 0.05 0.19 0.09 0.37 0.17 0.53 0.14 0.31 0.37 0.55 0.62 0.76 0.12 0.1 0.21 0.23 0.35 0.31 0.45 0.24 1 0.4 1.75 0.4 1.38 0 8.54-0.9 19.2-2.3l5.03-0.66c13.92-1.85 32.39-4.34 51.55-6.8z" fill="#FEE37F" p-id="82196"></path><path d="M828.66 591.22c-9.54 8.33-24.37 27.86-49.8 31.04-25.43 3.18-89 10.14-119.13 16.5-30.13 6.36-76.88 13.55-127.54 10.37-50.67-3.18-113.56-11.77-201.5-14.94-107.57 10.34-139.37-14.67-157.7-26.71-4.06 5.9-8.85 14.92-7.58 23.8 0.7 4.87 3.2 10.87 8.1 16.93 10.02 12.38 30.25 24.94 66.77 28.25 18.74 1.7 49.89 4.32 84.46 7.04 21.62 1.7 44.56 3.42 66.65 4.97 45.15 3.18 86.72 5.64 105.99 5.64 25.51 0 81.21-4.56 134.03-10.03 13.66-1.42 27.1-2.89 39.8-4.37 1.68-0.19 3.36-0.39 5.01-0.58 20.48-2.42 38.7-4.82 52.14-6.91 7.56-1.18 14.66-2.43 21.42-3.75 41.84-8.16 68.71-18.91 85.87-31.57 9.08-6.7 12.86-9.92 14.37-11.47 1.56-1.6 0.71 0.38 0.71 0.38l-5.02-53.19h-0.02c-3.25 8.47-8.41 11.07-17.03 18.6z" fill="#E2212E" p-id="82197"></path><path d="M158.26 544.55c-0.02 0.92-0.03 1.92-0.03 2.89 0.01-1.03 0.04-1.93 0.06-2.89h-0.03zM735.43 543.48c-17.28-6.41-40.48-6.78-59.42-1.67-13.73 7.25-29.45 13.98-43 15.97-1.54 0.23-3.06 0.34-4.57 0.36-4.58 1.19-9.03 2.02-13.27 2.29-16.95 1.06-34.43-12.18-47.15-19.07-12.71-6.89-30.2-8.48-57.74-6.65-14.27 0.95-31.67 7.67-48.66 14.08-0.51 0.74-1.06 1.5-1.64 2.28-0.31 0.41-0.61 0.82-0.94 1.25a72.132 72.132 0 0 1-3.33 4.04c-16.24 18.37-29.67 17.66-40.26 9.18-1.5-1.2-2.68-2.54-3.68-3.98-0.1-0.14-0.19-0.29-0.28-0.43-0.12-0.17-0.23-0.34-0.34-0.52-22.99-2.68-44.92-21.8-55.02-25.92-11.12-4.53-12.71 5.59-36.55 22.01-13.89 9.57-25.78 10.31-35.4 8.43-0.98 0.62-1.88 1.14-2.91 1.81-20.49 13.42-28.25 8.48-37.43 0-5.24-4.83-4.02-14.06-2.29-24.34-4.98-3.81-9.86-7.63-14.15-10.8-12.18-9.01-34.43 21.19-52.45 33.37-5.38 3.64-10.94 4.31-16.1 3.52 1.25 16.27 4.6 32.54 12.79 37.8 0.43 0.28 0.91 0.6 1.36 0.89 18.33 12.04 50.13 37 157.7 26.65 87.94 3.18 150.83 11.65 201.5 14.83 50.67 3.18 97.41-4.24 127.54-10.59 30.13-6.36 93.7-13.77 119.13-16.95 25.43-3.18 40.26-23.61 49.8-31.93 8.62-7.53 13.77-6.57 17.03-20.4 0.34-1.47 0.67-3.05 0.98-4.88 1.66-9.99 2.41-22.05 1.42-35.05-11.13 5.91-27.13 14.22-40.62 20.52-23.32 10.93-53.51 0.79-72.05-6.1z m-63.93 24.85c4.59 2.78 9.89 6.4 9.89 12.76s-15.18 19.78-21.54 22.27c-6.36 2.49-1.77-11.32-1.77-20.5s1.77-14.53 1.77-14.53c4.24-3.22 7.06-2.77 11.65 0z m-416.38 42.43c-4.94 0.7-16.25 4.95-36.73 3.53-20.48-1.41-18.26-3.63-28.96-15.54-10.11-11.25-10.6-22.6-7.77-29.67s6.36-4.95 21.19-7.06c14.83-2.12 40.97 19.78 52.27 28.96 11.3 9.19 4.94 19.08 0 19.78z m40.26-4.94c-4.94 2.12-14.83-3.53-19.07-8.48-4.24-4.94 4.94-12.01 4.94-12.01s2.03-4.24 5.48-4.24c3.44 0 12.18 0 15.89 4.24 3.71 4.24 1.32 6.62 1.32 13.51 0.01 6.89-3.62 4.86-8.56 6.98z m103.39 11.03c-15.63 3.71-37.88-4.5-42.65-9.27-4.77-4.77 8.74-15.63 8.74-15.63 3.48-3.15 8.21-3.44 15.63-2.65s25.96 11.92 29.93 16.97c3.98 5.05 3.98 6.87-11.65 10.58z m89.44 0.94c-14.48-6.39-13.77-10.56-11.3-11.51 2.47-0.96 30.73-1.51 44.85-2.91 14.13-1.4 31.43-10.26 36.73-15.13 5.3-4.88 14.13-17.37 14.13-17.37 6-4.24 6.71-1.77 18.37-2.12 11.65-0.35 26.49 4.59 34.26 9.18s7.42 5.65 0 23.88c-7.42 18.22-41.67 26.28-59.68 30.16-18.03 3.86-62.88-7.79-77.36-14.18z m340.45-39.17c-1.06 6.71-13.42 8.83-32.98 10.31s-20.35-3.6-24.23-7.84c-3.89-4.24 1.41-3.18 6.01-3.88 4.59-0.7 8.83-0.36 11.3-4.24 2.47-3.88 4.24-12.71 8.48-14.48 0 0 4.59 0 13.07 3.39 8.46 3.38 19.41 10.03 18.35 16.74zM158.84 568.63zM848.08 528.99c-0.03-0.43-0.09-0.87-0.12-1.3h-0.01c0.03 0.43 0.09 0.87 0.13 1.3zM158.23 554.01zM158.41 561.12z" fill="#B45945" p-id="82198"></path><path d="M408.92 556.2c-0.61-1.48-1.16-3.05-1.72-4.68-0.72-2.11-1.45-4.33-2.34-6.68-2.31-6.1-5.68-12.93-12.71-20.26-16.95-17.66-39.55-11.3-52.27-14.13-8.91-1.98-13.97 1.71-17.92 10.33-0.82 1.8-1.61 3.81-2.36 6.01-0.02 0.08-0.05 0.14-0.08 0.22-0.77 2.26-1.51 4.73-2.24 7.45-0.55 2.04-1.2 3.8-1.9 5.46-0.16 0.38-0.32 0.76-0.49 1.12-0.71 1.52-1.48 2.92-2.34 4.16-0.16 0.23-0.34 0.43-0.5 0.65-0.78 1.05-1.63 2.03-2.53 2.94-0.24 0.24-0.48 0.5-0.73 0.74a34.3 34.3 0 0 1-3.39 2.77c-0.35 0.26-0.73 0.51-1.1 0.77a68.77 68.77 0 0 1-3.39 2.18c-4.55 2.76-10.13 5.75-16.75 9.9 9.62 1.87 21.51 1.14 35.4-8.43 23.84-16.42 25.43-26.54 36.55-22.01 10.11 4.11 32.03 23.24 55.02 25.92-0.75-1.2-1.39-2.47-1.96-3.82-0.07-0.2-0.16-0.4-0.25-0.61zM799 544.36c-19.78 3.53-33.9-19.07-48.03-24.01-5.03-1.76-10.88-2.76-16.95-2.93-2.71-0.07-5.47 0.03-8.22 0.31-0.14 0.02-0.28 0.05-0.42 0.07-2.37 0.26-4.72 0.7-7.04 1.25-0.67 0.16-1.32 0.34-1.98 0.53-1.86 0.51-3.68 1.15-5.46 1.87-0.67 0.28-1.36 0.53-2.02 0.83-2.31 1.07-4.56 2.27-6.64 3.73-3.24 2.26-7.44 5-12.16 7.87-0.09 0.05-0.16 0.1-0.24 0.15-4.2 2.55-8.88 5.19-13.82 7.79 18.95-5.11 42.15-4.75 59.42 1.67 18.54 6.89 48.74 17.03 72.05 6.13 13.48-6.3 29.49-14.62 40.62-20.52 0-0.03-0.01-0.07-0.01-0.1-0.03-0.43-0.1-0.87-0.14-1.3-14.47 4.88-31.43 13.53-48.96 16.66zM175.06 565.2c18.01-12.18 40.21-42.38 52.39-33.37 4.28 3.17 9.13 6.99 14.12 10.8 1.31-7.76 2.89-16.1 2.28-23.69-0.09-1.13-0.22-2.16-0.39-3.11-0.04-0.24-0.11-0.43-0.15-0.66-0.14-0.67-0.28-1.35-0.46-1.92-0.06-0.2-0.14-0.36-0.21-0.55-0.19-0.54-0.38-1.08-0.6-1.53-0.07-0.15-0.16-0.26-0.23-0.4-0.24-0.44-0.49-0.87-0.77-1.23-0.07-0.09-0.15-0.16-0.23-0.25-0.31-0.36-0.62-0.69-0.97-0.95-0.06-0.04-0.13-0.08-0.19-0.12-0.38-0.27-0.77-0.51-1.18-0.68-0.04-0.02-0.08-1.16-0.13-1.18-0.45-0.17-0.92-1.53-1.41-1.53h-0.04c-0.52 0-1.06 1-1.63 1.01-4.25 0.05-9.66 3.12-15.41 5.49-12.01 4.95-31.75 27.83-52.94 32.07-2.95 0.59-5.39 0.98-8.19 1.03-0.02 0.96 0.36 2.01 0.36 3.03V554.33c0 2.21-0.32 4.49-0.23 6.81 0 0.1-0.09 0.21-0.09 0.32 0.1 2.37 0.32 4.78 0.32 7.19v0.09c-0.02 0.77 10.6 0.1 15.98-3.54zM580.74 526c-9.18-12.71-24.72-20.48-36.02-20.48s-43.09 14.13-60.04 17.66c-5.53 1.15-8.79 3.15-11.26 5.93-0.63 0.71-1.2 1.47-1.75 2.28-0.02 0.03-0.04 0.05-0.05 0.08-1.77 2.64-3.27 5.83-5.26 9.53-0.22 0.41-0.46 0.83-0.69 1.25-0.39 0.7-0.78 1.39-1.21 2.12-0.55 0.92-1.13 1.87-1.77 2.86-0.26 0.41-0.55 0.82-0.83 1.23l-0.24 0.36c16.99-6.41 34.39-13.14 48.66-14.08 27.55-1.83 45.03-0.24 57.74 6.65 12.71 6.89 30.2 20.13 47.15 19.07 4.24-0.26 8.69-1.1 13.27-2.29-21.86 0.27-39.11-20.27-47.7-32.17z" fill="#9A4635" p-id="82199"></path><path d="M848.17 416.46c0.53 0.62 1.06 1.24 1.61 1.86-0.54-0.62-1.08-1.24-1.61-1.86zM853.08 421.92c0.48 0.51 0.95 1.02 1.44 1.52-0.49-0.5-0.96-1.01-1.44-1.52zM105.35 482.44zM869.63 439.12c-2.47-3.02-6.44-6.9-10.73-11.2 0.06 0.05 0.12 0.12 0.17 0.17-2.21 3.11-4.25 6.03-5.69 8.2-5.53 8.36-9.89 12.01-18.36 12.01s-6.36 6.36-0.71 21.19c4.95 13.01 25.66 25.87 30.68 28.85 0.65 0.37 1.11 0.64 1.11 0.64l-1.11-0.64c-3.54-2.04-15.69-8.69-26.44-10.48-12.71-2.12-24.72-4.24-33.9-13.42s-31.08-9.18-43.79-9.18-57.21 17.66-72.05 19.77c-14.83 2.12-9.89-6.36-17.66-10.6-7.77-4.24-28.96 1.42-28.96 1.42s-0.71 0.12-1.83 0.29c19.72 9.08 89.17 40.96 93.63 41.25 0.01 0 0.02 0.02 0.02 0.02 6.07 0.17 11.92 1.17 16.95 2.93 14.13 4.94 28.25 28.82 48.03 25.28 17.53-3.13 34.49-15.4 48.94-15.4h0.01c1.85 0 3.67-2.48 5.43-2.96 15.54-4.24 33.2-1.35 53.68-2.76 20.48-1.41 11.3-12.32 19.07-21.51 7.77-9.18 16.24-14.28 16.24-14.28s-66.37-41.82-72.73-49.59zM843.97 411.13c0.41 0.58 0.87 1.15 1.32 1.73-0.44-0.57-0.9-1.15-1.32-1.73zM100.96 481.5c-1.68-0.39-3.16-1.08-4.53-1.92 1.38 0.83 2.85 1.53 4.53 1.92zM109.56 483.25c-0.93-0.17-1.87-0.35-2.82-0.54 0.95 0.2 1.89 0.38 2.82 0.54zM415.46 565.55c-1.5-1.2-2.68-2.54-3.68-3.98 1 1.45 2.18 2.79 3.68 3.98zM459.05 552.33a72.132 72.132 0 0 1-3.33 4.04c1.23-1.39 2.31-2.73 3.33-4.04zM312.55 545.22c-0.16 0.23-0.34 0.43-0.5 0.65 0.16-0.22 0.35-0.43 0.5-0.65zM236.92 504.81h-0.04 0.04z" fill="#7CE153" p-id="82200"></path><path d="M166.89 544.98c21.19-4.24 40.93-27.5 52.94-32.45 5.76-2.37 11.17-5.2 15.41-5.25 3.64-4.96 11.41-8.65 14.23-28.43 2.82-19.78 2.82-19.87 2.82-19.87s19.07 40.22 7.77 66.36c-5.44 12.57-10.37 29.03-13.8 43.79-0.81-0.69-1.61-1.39-2.44-2.15 9.18 8.48 16.94 13.42 37.43 0 1.03-0.67 1.93-1.2 2.91-1.81 6.62-4.15 12.2-7.14 16.75-9.9-0.31 0.19-0.6 0.38-0.93 0.58l14.23-86.34 5.87 51.27v0.02c8.48-8.63 9.94-12.31 18.85-10.33 12.71 2.83 35.78-3.53 52.73 14.13 7.04 7.33 10.87 14.16 13.18 20.26v-78.89l-25.43-3.53v32.49l-15.87-27.53-141.6-12.08-26.09 39.66 12.1-47.99s-13.25-6.27-28.78-18.27c-9.34-7.21-14.19-20.46-16.59-29.9l13.41-7.71-92.18 52.97s-0.94 26.45 11.95 35.12c-1.34-0.91-2.55-1.97-3.61-3.22 28.73-5.38 72.89-14.44 79.95-20.51-11.99 10.73-28.44 22.73-42.77 32.62 1.18 1.01 1.1 2.27-0.75 4.02-6.71 6.36-28.74 25.34-14.61 35.93 12.16 9.12 26.9 19.16 44.27 19.16h0.02c2.83-0.01 5.69-1.63 8.63-2.22zM315.38 539.93z" fill="#7CE153" p-id="82201"></path><path d="M240.81 509.28c0.07 0.09 0.16 0.16 0.23 0.25-0.08-0.09-0.16-0.16-0.23-0.25zM238.46 507.52zM319.6 526.8c-0.02 0.07-0.05 0.14-0.08 0.22 0.02-0.08 0.05-0.14 0.08-0.22zM407.21 551.52c0.56 1.64 1.11 3.2 1.72 4.68-0.62-1.48-1.17-3.04-1.72-4.68zM471.62 531.46c0.02-0.03 0.04-0.05 0.05-0.08-0.01 0.02-0.03 0.05-0.05 0.08zM630.18 477.26c-8.48 0.71-181.53-7.06-181.53-7.06l24.77 58.9c2.47-2.78 5.73-4.78 11.26-5.93 16.95-3.53 48.74-17.66 60.04-17.66s26.84 7.77 36.02 20.48c8.59 11.9 25.84 32.44 47.7 32.15 1.5-0.02 3.02-0.13 4.57-0.36 13.55-1.99 29.26-8.72 43-15.97 4.94-2.6 9.61-5.24 13.82-7.79l-52.18-57.52c-1.89 0.23-4.21 0.49-7.47 0.76zM243.45 515.83c-0.04-0.24-0.1-0.43-0.15-0.66 0.05 0.23 0.11 0.42 0.15 0.66zM718.33 519.05c-0.67 0.16-1.32 0.34-1.98 0.53 0.66-0.19 1.31-0.38 1.98-0.53zM710.89 521.45c-0.68 0.28-1.36 0.52-2.02 0.83 0.66-0.31 1.35-0.56 2.02-0.83zM465.67 542.23c0.23-0.42 0.47-0.84 0.69-1.25-0.22 0.41-0.46 0.83-0.69 1.25zM239.84 508.33c-0.06-0.04-0.13-0.08-0.19-0.12 0.06 0.04 0.13 0.07 0.19 0.12zM242.04 511.16c-0.07-0.15-0.16-0.26-0.23-0.4 0.07 0.14 0.16 0.25 0.23 0.4zM242.85 513.24c-0.06-0.2-0.14-0.36-0.21-0.55 0.07 0.19 0.15 0.35 0.21 0.55zM305.41 552.32c-0.35 0.26-0.73 0.51-1.1 0.77 0.36-0.26 0.75-0.52 1.1-0.77zM309.52 548.81c-0.24 0.24-0.48 0.5-0.73 0.74 0.25-0.24 0.49-0.5 0.73-0.74zM702.23 526c-3.24 2.26-7.44 5-12.16 7.87 4.72-2.87 8.92-5.61 12.16-7.87zM462.69 547.21zM459.99 551.08c0.58-0.78 1.12-1.54 1.64-2.28l0.24-0.36c-0.59 0.86-1.22 1.74-1.88 2.64zM409.19 556.82c0.57 1.34 1.21 2.62 1.96 3.82 0.11 0.17 0.23 0.34 0.34 0.52-0.89-1.36-1.64-2.8-2.3-4.34zM725.79 517.73c-0.14 0.02-0.28 0.05-0.42 0.07 0.14-0.02 0.28-0.05 0.42-0.07z" fill="#7CE153" p-id="82202"></path><path d="M179.19 428.7c15.54 12.01 28.78 18.27 28.78 18.27l-12.1 47.99 26.09-39.66 141.6 12.08 15.87 27.53v-32.49l25.43 3.53v78.89c0.89 2.35 1.63 4.56 2.34 6.68 0.56 1.64 1.11 3.2 1.72 4.68 0.09 0.21 0.18 0.41 0.27 0.61 0.66 1.54 1.41 2.98 2.3 4.33 0.09 0.14 0.18 0.29 0.28 0.43 1.01 1.44 2.19 2.78 3.68 3.98 10.6 8.48 24.02 9.19 40.26-9.18 1.23-1.4 2.31-2.73 3.33-4.04 0.33-0.43 0.63-0.84 0.94-1.25 0.67-0.9 1.29-1.78 1.87-2.64 0.28-0.41 0.57-0.83 0.83-1.23 0.64-0.98 1.22-1.93 1.77-2.86 0.43-0.73 0.82-1.42 1.21-2.12 0.23-0.42 0.47-0.84 0.69-1.25 1.99-3.7 3.5-6.89 5.26-9.53 0.02-0.03 0.04-0.06 0.05-0.08 0.55-0.81 1.12-1.57 1.75-2.28l-24.77-58.9s173.05 7.77 181.53 7.06c3.26-0.27 5.58-0.53 7.46-0.76l-2.51-2.77s1.95 0.9 5.23 2.41c1.12-0.17 1.83-0.29 1.83-0.29s21.19-5.65 28.96-1.42c7.77 4.24 2.83 12.71 17.66 10.6 14.83-2.12 59.33-19.77 72.05-19.77s34.61 0 43.79 9.18 21.19 11.3 33.9 13.42c10.74 1.79 22.9 8.44 26.44 10.48-5.02-2.97-25.72-15.84-30.68-28.85-5.65-14.83-7.77-21.19 0.71-21.19s12.83-3.65 18.36-12.01c1.44-2.18 3.48-5.09 5.69-8.2-0.05-0.05-0.11-0.12-0.17-0.17-1.44-1.45-2.92-2.95-4.39-4.48-0.48-0.51-0.95-1.01-1.44-1.52-1.12-1.19-2.21-2.39-3.29-3.6-0.55-0.62-1.08-1.23-1.61-1.86-1.02-1.2-1.97-2.4-2.88-3.6-0.45-0.58-0.91-1.15-1.32-1.73-1.25-1.75-2.4-3.49-3.3-5.21-0.23-0.44-0.88-0.96-1.72-1.52-2.01 5.13-4.43 10-7.11 14.59-14.83 25.43-107.01 31.79-165.28 35.14-58.27 3.36-175.88-0.18-175.88-0.18-244.74 2.12-259.58-14.83-292.42-33.9-11.96-6.94-18.82-18.55-22.25-31.75v2.79l-13.41 7.71c2.41 9.46 7.26 22.7 16.6 29.91zM864.99 498.34l1.11 0.64s-0.46-0.27-1.11-0.64z" fill="#56BF51" p-id="82203"></path><path d="M198.26 420.05c32.84 19.07 47.68 36.02 292.42 33.9 0 0 117.6 3.53 175.88 0.18 58.27-3.36 150.45-9.71 165.28-35.14 2.67-4.59 5.09-9.46 7.11-14.59 9.15-23.32 9.6-52.2-15.58-86.06-30.73-41.32-72.05-84.76-154.69-100.65s-158.92-24.37-200.25-23.31c-41.32 1.06-84.76 7.42-175.88 43.44 0 0-1.23 0.68-3.43 1.94-17.69 10.09-98.4 57.14-107.82 80.7-6.74 16.84-11.29 44.8-5.3 67.85 3.44 13.19 10.3 24.79 22.26 31.74z m527.63-113.37c-7.06-2.12-10.6-12.57-10.6-12.57s4.59-0.49 7.77 0c3.18 0.49 8.83 2.33 12.01 7.98 3.18 5.65-2.11 6.71-9.18 4.59z m-425.92-54.03c13.77-10.59 116.54-41.32 116.54-41.32 125.02-29.67 287.12 34.96 306.2 44.5 19.07 9.54 23.31 24.37-69.93 56.15s-166.34 26.49-288.18 0c-22.45-4.88-39.25-9.61-51.69-14.16-5.02 4.27-12.92-0.86-18.94-4.2-2.89-1.61-1.25-2.77 1.4-3.56-29.7-16.56-5.15-29.91 4.6-37.41z m-51.91 57.21s5.83-2.12 9.54 2.65c3.71 4.77 3.71 13.24-2.65 19.6-6.36 6.36-17.48-4.24-19.07-11.12-1.6-6.89 12.18-11.13 12.18-11.13z m-22.25 34.17s-2.38 19.34 6.36 27.81c8.74 8.48 37.35 22.25 59.07 28.61 21.72 6.36 25.43 8.21 25.43 8.21s-59.07-13.24-73.9-19.07-29.14-14.3-29.4-19.6c-0.28-5.3-0.54-20.13 12.44-25.96z" fill="#FD9E35" p-id="82204"></path><path d="M295.37 290.05c3.18-0.96 7.79-1.38 7.79-1.38 15.54 1.41 15.54 2.83 10.6 8.48-0.26 0.29-0.56 0.44-0.84 0.67 12.44 4.54 29.24 9.28 51.69 14.16 121.84 26.49 194.95 31.79 288.18 0s89-46.62 69.93-56.15c-19.07-9.54-181.17-74.16-306.2-44.5 0 0-102.77 30.73-116.54 41.32-9.76 7.5-34.31 20.85-4.61 37.4z m348.38-37.03c6.15-0.33 9.04 3.16 10.81 7.67 1.77 4.52 0 7.14-6.71 7.66-6.71 0.52-15.54-15.33-15.54-15.33-1.28-2.13 5.29 0.34 11.44 0z m-37.93 40.87c3.89 2.74 2.47 7.5 2.12 11.03-0.35 3.53-5.3 2.82-11.3-2.47-6.01-5.3-9.18-11.65-9.18-11.65 1.05-3.9 14.47 0.35 18.36 3.09z m-33.56-59.6c4.94 0.35 9.89 1.77 12.01 4.92 2.12 3.15 0 2.15-7.42 4.62s-14.13 4.24-15.89 0c-1.76-4.25 11.3-9.54 11.3-9.54zM520 315.87c3.53 3.53 3.53 5.3 3.53 10.24 0 4.95-2.82 3.18-13.07-3.53-10.24-6.71-4.13-9.54-4.13-9.54 1.38-1.23 10.14-0.7 13.67 2.83zM495.27 247c4.94 0 12.01 1.06 10.95 5.48-1.06 4.42-17.66 8.65-21.19 5.47-3.53-3.18 10.24-10.95 10.24-10.95z m-38.84 41.67c2.12 5.3-14.83 2.12-22.25 0s3.53-7.06 3.53-7.06 6.01-1.77 13.33-1.42c7.31 0.36 3.27 3.18 5.39 8.48z m-15.3-62.86c5.59-3.09 7.52 0.71 9.64 2.83 2.12 2.12-9.18 13.42-19.07 9.89-9.89-3.54 9.43-12.72 9.43-12.72z m-68.76 30.37c9.89-2.12 10.6 0.7 12.01 6 1.42 5.3-14.13 6.71-21.9 6.01-7.77-0.71 9.89-12.01 9.89-12.01z" fill="#F6962E" p-id="82205"></path><path d="M303.15 288.67s-4.61 0.43-7.79 1.38c-2.64 0.79-4.29 1.96-1.4 3.56 6.03 3.35 13.92 8.48 18.94 4.2 0.27-0.24 0.58-0.38 0.84-0.67 4.95-5.64 4.95-7.06-10.59-8.47zM362.48 268.19c7.77 0.71 23.31-0.71 21.9-6.01-1.42-5.3-2.12-8.12-12.01-6 0 0-17.66 11.3-9.89 12.01zM431.7 238.52c9.89 3.53 21.19-7.77 19.07-9.89-2.12-2.12-4.05-5.92-9.64-2.83 0 0.01-19.32 9.19-9.43 12.72zM506.22 252.47c1.06-4.42-6.01-5.48-10.95-5.48 0 0-13.77 7.77-10.24 10.95 3.53 3.18 20.13-1.05 21.19-5.47zM576.86 243.82c7.42-2.47 9.54-1.47 7.42-4.62-2.12-3.15-7.07-4.56-12.01-4.92 0 0-13.06 5.3-11.3 9.54 1.76 4.24 8.47 2.47 15.89 0zM647.84 268.36c6.71-0.52 8.48-3.15 6.71-7.66-1.77-4.52-4.66-8-10.81-7.67-6.15 0.33-12.72-2.14-11.44 0 0-0.01 8.83 15.85 15.54 15.33zM723.07 294.11c-3.18-0.49-7.77 0-7.77 0s3.53 10.45 10.6 12.57c7.06 2.12 12.36 1.06 9.18-4.59-3.18-5.65-8.83-7.49-12.01-7.98zM596.63 302.44c6.01 5.3 10.95 6.01 11.3 2.47 0.35-3.53 1.77-8.29-2.12-11.03s-17.3-6.99-18.36-3.1c0 0.01 3.18 6.37 9.18 11.66zM510.46 322.58c10.24 6.71 13.07 8.48 13.07 3.53 0-4.95 0-6.71-3.53-10.24-3.53-3.53-12.29-4.05-13.67-2.83 0 0-6.11 2.82 4.13 9.54zM437.71 281.61s-10.95 4.94-3.53 7.06c7.42 2.12 24.37 5.3 22.25 0-2.12-5.3 1.93-8.12-5.39-8.48-7.33-0.35-13.33 1.42-13.33 1.42z" fill="#FEE3C6" p-id="82206"></path><path d="M254.94 332.11c6.36-6.36 6.36-14.83 2.65-19.6-3.71-4.77-9.54-2.65-9.54-2.65s-13.77 4.24-12.18 11.12c1.59 6.89 12.72 17.49 19.07 11.13z" fill="#FDD83C" p-id="82207"></path><path d="M242.76 389.59c14.83 5.83 73.9 19.07 73.9 19.07s-3.71-1.85-25.43-8.21c-21.72-6.36-50.33-20.13-59.07-28.61-8.74-8.48-6.36-27.81-6.36-27.81-12.98 5.83-12.71 20.66-12.45 25.96 0.27 5.3 14.58 13.77 29.41 19.6z" fill="#FEC33B" p-id="82208"></path><path d="M92.17 475.97c1.06 1.24 2.27 2.3 3.61 3.22 0.21 0.14 0.43 0.26 0.65 0.4 1.37 0.84 2.84 1.53 4.53 1.92 1.49 0.34 2.95 0.65 4.39 0.94 0.47 0.1 0.92 0.18 1.38 0.27 0.96 0.19 1.9 0.37 2.82 0.54 9.59 1.78 17.4 2.76 19.79 4.82 14.33-9.88 30.79-21.89 42.77-32.62-7.04 6.06-51.21 15.13-79.94 20.51zM260.07 525.3c11.3-26.13-7.77-66.4-7.77-66.4l-2.82 19.78c-2.82 19.78-10.59 22.18-14.23 27.14 0.57-0.01 1.11-1.01 1.63-1.01h0.04c0.49 0 0.96 1.36 1.41 1.53 0.05 0.02 0.09 0.6 0.13 0.61 0.42 0.18 0.81 0.7 1.18 0.97 0.06 0.04 0.13 0.22 0.19 0.26 0.35 0.27 0.66 0.67 0.97 1.02 0.07 0.09 0.16 0.19 0.23 0.28 0.28 0.36 0.53 0.81 0.77 1.25 0.07 0.14 0.16 0.26 0.23 0.41 0.22 0.46 0.42 0.99 0.6 1.54 0.07 0.19 0.14 0.35 0.21 0.55 0.17 0.58 0.32 1.25 0.45 1.93 0.04 0.23 0.11 0.42 0.15 0.66 0.17 0.95 0.29 1.98 0.39 3.11 0.61 7.59-0.99 15.93-2.29 23.69-1.73 10.28-2.95 19.51 2.29 24.34 0.82 0.76 1.63 1.44 2.44 2.14 3.43-14.76 8.36-31.23 13.8-43.8zM305.41 552.32a37.4 37.4 0 0 0 3.39-2.77c0.25-0.24 0.48-0.49 0.73-0.74 0.9-0.91 1.75-1.89 2.53-2.94 0.16-0.22 0.34-0.43 0.5-0.65 0.86-1.25 1.63-2.64 2.34-4.16 0.17-0.36 0.33-0.75 0.49-1.12 0.7-1.65 1.35-3.41 1.9-5.46 0.73-2.73 1.47-5.2 2.24-7.45 0.02-0.07-0.87-0.14-0.85-0.22 0.75-2.21 1.43-4.21 1.43-6.01v-0.02l-5.87-51.27-14.7 86.34c0.32-0.19 0.85-0.38 1.16-0.58 1.19-0.72 2.43-1.45 3.5-2.18 0.36-0.26 0.85-0.51 1.21-0.77zM637.64 476.5l52.18 57.52c0.09-0.05 0.16-0.1 0.24-0.15 4.73-2.88 8.93-5.61 12.16-7.87 2.08-1.46 4.33-2.66 6.64-3.73 0.66-0.31 1.34-0.55 2.02-0.83 1.78-0.72 3.6-1.36 5.46-1.87 0.66-0.19 1.31-0.37 1.98-0.53 2.32-0.55 4.67-0.99 7.04-1.25 0.14-0.02 0.28-0.05 0.42-0.07 2.75-0.28 5.51-0.38 8.22-0.31-0.01 0-0.02-0.02-0.02-0.02-4.46-0.29-73.92-32.17-93.63-41.25-3.28-1.51-5.23-2.41-5.23-2.41l2.52 2.77z" fill="#56BF51" p-id="82209"></path><path d="M255.12 590.98c-11.3-9.18-37.44-31.08-52.27-28.96-14.83 2.12-18.37 0-21.19 7.06s-2.34 18.41 7.77 29.67c10.7 11.91 8.48 14.13 28.96 15.54 20.48 1.41 31.79-2.83 36.73-3.53 4.94-0.7 11.3-10.59 0-19.78zM302.62 585.33c-3.71-4.24-12.45-4.24-15.89-4.24-3.44 0-5.48 4.24-5.48 4.24s-9.18 7.07-4.94 12.01c4.24 4.94 14.13 10.6 19.07 8.48 4.94-2.12 8.56-0.09 8.56-6.98 0.01-6.89 2.39-9.27-1.32-13.51zM380.49 589.3c-7.42-0.8-12.14-0.5-15.63 2.65 0 0-13.51 10.86-8.74 15.63 4.77 4.77 27.02 12.98 42.65 9.27 15.63-3.71 15.63-5.53 11.65-10.58-3.97-5.05-22.51-16.17-29.93-16.97zM625.24 601.79c7.42-18.22 7.77-19.29 0-23.88s-22.6-9.53-34.26-9.18c-11.65 0.35-12.37-2.12-18.37 2.12 0 0-8.83 12.5-14.13 17.37-5.3 4.88-22.61 13.73-36.73 15.13-14.13 1.4-42.38 1.96-44.85 2.91-2.47 0.96-3.17 5.12 11.3 11.51 14.48 6.39 59.33 18.04 77.34 14.16 18.03-3.86 52.28-11.92 59.7-30.14zM659.85 568.33s-1.77 5.34-1.77 14.53c0 9.18-4.59 22.99 1.77 20.5 6.36-2.49 21.54-15.91 21.54-22.27s-5.29-9.98-9.89-12.76c-4.59-2.77-7.41-3.22-11.65 0zM788.75 572.97c-2.47 3.88-6.7 3.53-11.3 4.24-4.59 0.7-9.89-0.36-6.01 3.88 3.89 4.24 4.67 9.32 24.23 7.84s31.92-3.6 32.98-10.31c1.06-6.71-9.89-13.36-18.36-16.75-8.48-3.39-13.07-3.39-13.07-3.39-4.23 1.78-6 10.61-8.47 14.49z" fill="#C76852" p-id="82210"></path></svg>