<?xml version="1.0" standalone="no"?><!DOCTYPE svg PUBLIC "-//W3C//DTD SVG 1.1//EN" "http://www.w3.org/Graphics/SVG/1.1/DTD/svg11.dtd"><svg t="1611474704703" class="icon" viewBox="0 0 1024 1024" version="1.1" xmlns="http://www.w3.org/2000/svg" p-id="48250" xmlns:xlink="http://www.w3.org/1999/xlink" width="200" height="200"><defs><style type="text/css"></style></defs><path d="M512 534.4c-14.4 0-25.6-11.2-25.6-25.6V464H424c-14.4 0-25.6-11.2-25.6-25.6 0-14.4 11.2-25.6 25.6-25.6h62.4V392H424c-14.4 0-25.6-11.2-25.6-25.6 0-14.4 11.2-25.6 25.6-25.6h40l-48-72c-3.2-6.4-4.8-12.8-3.2-19.2 1.6-6.4 4.8-12.8 11.2-16 4.8-3.2 9.6-4.8 14.4-4.8 8 0 16 4.8 20.8 11.2l52.8 78.4 52.8-78.4c4.8-6.4 12.8-11.2 20.8-11.2 4.8 0 9.6 1.6 14.4 4.8 6.4 3.2 9.6 9.6 11.2 16 1.6 6.4 0 12.8-3.2 19.2l-48 72h43.2c14.4 0 25.6 11.2 25.6 25.6 0 14.4-11.2 25.6-25.6 25.6h-62.4v20.8h62.4c14.4 0 25.6 11.2 25.6 25.6 0 14.4-11.2 25.6-25.6 25.6h-62.4v44.8c-3.2 14.4-14.4 25.6-28.8 25.6z" fill="#2A394D" p-id="48251"></path><path d="M342.4 940.8c-20.8 0-36.8-16-36.8-36.8s16-36.8 36.8-36.8h134.4V729.6c-62.4-8-120-36.8-164.8-81.6-44.8-44.8-73.6-104-81.6-168l-1.6-1.6L96 336c-16-16-27.2-40-27.2-65.6 0-52.8 43.2-96 96-96h62.4V120c0-20.8 16-36.8 36.8-36.8 20.8 0 36.8 16 36.8 36.8v329.6c0 116.8 94.4 211.2 211.2 211.2 116.8 0 211.2-94.4 211.2-211.2V156.8h-344c-20.8 0-36.8-16-36.8-36.8 0-20.8 16-36.8 36.8-36.8H760c20.8 0 36.8 16 36.8 36.8v54.4h62.4c52.8 0 97.6 43.2 97.6 96 0 25.6-9.6 49.6-28.8 67.2L795.2 480c-6.4 62.4-35.2 121.6-81.6 168-44.8 44.8-102.4 73.6-164.8 81.6v137.6h134.4c20.8 0 36.8 16 36.8 36.8s-16 36.8-36.8 36.8H342.4zM166.4 248c-12.8 0-24 11.2-24 24 0 6.4 3.2 12.8 6.4 17.6l1.6 1.6 78.4 84.8V249.6h-59.2c-1.6-1.6-1.6-1.6-3.2-1.6z m628.8 124.8l78.4-83.2 1.6-1.6c4.8-4.8 6.4-11.2 6.4-17.6 0-12.8-11.2-24-24-24h-62.4v126.4z" fill="#2A394D" p-id="48252"></path></svg>