<?xml version="1.0" standalone="no"?><!DOCTYPE svg PUBLIC "-//W3C//DTD SVG 1.1//EN" "http://www.w3.org/Graphics/SVG/1.1/DTD/svg11.dtd"><svg t="1610676068753" class="icon" viewBox="0 0 1024 1024" version="1.1" xmlns="http://www.w3.org/2000/svg" p-id="9541" xmlns:xlink="http://www.w3.org/1999/xlink" width="200" height="200"><defs><style type="text/css"></style></defs><path d="M557.176471 165.647059a60.235294 60.235294 0 0 1 60.235294 60.235294v632.470588h-60.235294V240.941176a15.058824 15.058824 0 0 0-15.058824-15.058823H240.941176a15.058824 15.058824 0 0 0-15.058823 15.058823v617.411765H165.647059V225.882353a60.235294 60.235294 0 0 1 60.235294-60.235294h331.294118z" fill="#2A394D" p-id="9542"></path><path d="M271.058824 361.411765m30.117647 0l180.705882 0q30.117647 0 30.117647 30.117647l0 0q0 30.117647-30.117647 30.117647l-180.705882 0q-30.117647 0-30.117647-30.117647l0 0q0-30.117647 30.117647-30.117647Z" fill="#2A394D" p-id="9543"></path><path d="M271.058824 481.882353m30.117647 0l180.705882 0q30.117647 0 30.117647 30.117647l0 0q0 30.117647-30.117647 30.117647l-180.705882 0q-30.117647 0-30.117647-30.117647l0 0q0-30.117647 30.117647-30.117647Z" fill="#2A394D" p-id="9544"></path><path d="M271.058824 617.411765m30.117647 0l180.705882 0q30.117647 0 30.117647 30.117647l0 0q0 30.117647-30.117647 30.117647l-180.705882 0q-30.117647 0-30.117647-30.117647l0 0q0-30.117647 30.117647-30.117647Z" fill="#2A394D" p-id="9545"></path><path d="M90.352941 813.176471m30.117647 0l798.117647 0q30.117647 0 30.117647 30.117647l0 0q0 30.117647-30.117647 30.117647l-798.117647 0q-30.117647 0-30.117647-30.117647l0 0q0-30.117647 30.117647-30.117647Z" fill="#2A394D" p-id="9546"></path><path d="M647.529412 376.470588h150.588235a60.235294 60.235294 0 0 1 60.235294 60.235294v391.529412h-60.235294V451.764706a15.058824 15.058824 0 0 0-15.058823-15.058824h-135.529412v-60.235294z" fill="#2A394D" p-id="9547"></path></svg>