<?xml version="1.0" standalone="no"?><!DOCTYPE svg PUBLIC "-//W3C//DTD SVG 1.1//EN" "http://www.w3.org/Graphics/SVG/1.1/DTD/svg11.dtd"><svg t="1611474114978" class="icon" viewBox="0 0 1024 1024" version="1.1" xmlns="http://www.w3.org/2000/svg" p-id="41450" xmlns:xlink="http://www.w3.org/1999/xlink" width="200" height="200"><defs><style type="text/css"></style></defs><path d="M527.648582 713.69697c-105.50303 0-186.181818-80.678788-186.181818-186.181818s80.678788-186.181818 186.181818-186.181819 186.181818 80.678788 186.181818 186.181819-80.678788 186.181818-186.181818 186.181818z m0-310.303031c-68.266667 0-124.121212 55.854545-124.121212 124.121213s55.854545 124.121212 124.121212 124.121212 124.121212-55.854545 124.121212-124.121212-55.854545-124.121212-124.121212-124.121213z" fill="#2A394D" p-id="41451"></path><path d="M640.07137 1024h-255.875879c-19.176727 0-31.961212-12.815515-31.961212-31.992242V870.4c-25.6-12.815515-51.2-25.6-70.376727-38.415515L179.488582 896c-12.784485 6.392242-31.961212 6.392242-44.776727-12.815515L6.773915 659.207758c-12.784485-19.207758-6.392242-38.415515 12.815515-44.807758l102.33794-64.015515v-76.76897L19.58943 409.6c-19.207758-6.392242-25.6-25.6-12.815515-44.807758l127.93794-224.007757c6.423273-12.784485 25.6-19.176727 44.776727-6.392243L281.888582 198.407758c19.176727-12.815515 44.776727-32.023273 70.345697-38.415516V31.992242C352.203248 12.815515 365.049794 0 384.195491 0h255.875879c19.176727 0 31.961212 12.784485 31.961212 31.992242V153.6c25.6 12.784485 51.2 25.6 70.376727 38.384485l102.36897-63.984485c12.784485-6.392242 31.961212-6.392242 44.776727 12.784485l127.937939 224.038788c12.784485 19.176727 6.392242 38.384485-12.815515 44.776727l-102.337939 64.015515v76.8l102.337939 63.984485c12.815515 6.392242 19.207758 25.6 12.815515 44.807758l-127.937939 223.976727c-6.423273 12.815515-25.6 19.238788-44.776727 12.815515l-102.36897-64.015515c-19.176727 12.815515-44.776727 32.023273-70.345697 38.415515v121.607758c0 19.176727-12.815515 31.992242-31.992242 31.992242z m-223.883637-64.015515h191.891394v-108.792243c0-12.784485 6.392242-25.6 19.207758-31.992242 31.961212-12.784485 63.953455-31.992242 89.553454-51.2a40.773818 40.773818 0 0 1 38.384485 0l95.945697 57.592242 95.945697-166.384484-95.945697-57.623273c-12.815515-12.784485-19.207758-25.6-12.815515-38.384485 0-19.207758 6.423273-31.992242 6.423273-51.2s0-31.992242-6.423273-51.2c0-12.784485 6.423273-25.6 12.815515-31.992242l95.945697-57.623273L851.170521 204.8l-95.945697 57.592242a40.773818 40.773818 0 0 1-38.384485 0c-25.6-19.176727-57.592242-38.384485-89.553454-51.2-12.815515-12.784485-19.207758-25.6-19.207758-38.384484V64.015515h-191.891394v108.792243c0 12.784485-6.392242 25.6-19.207757 31.992242-31.961212 12.815515-63.953455 31.992242-89.553455 51.2a40.773818 40.773818 0 0 1-38.384485 0L173.096339 204.8l-95.945697 166.415515 95.945697 57.592243c12.815515 6.392242 19.207758 19.176727 12.815516 31.992242 0 19.207758-6.423273 31.992242-6.423273 51.2s0 31.992242 6.423273 51.2c6.392242 12.815515 0 25.6-12.815516 31.992242l-95.945697 57.623273L173.096339 819.2l95.945697-57.592242a40.773818 40.773818 0 0 1 38.384485 0c25.6 19.207758 57.592242 38.384485 89.553455 51.2 12.815515 6.392242 19.207758 19.207758 19.207757 31.992242v115.184485z" fill="#2A394D" p-id="41452"></path></svg>