<?xml version="1.0" standalone="no"?><!DOCTYPE svg PUBLIC "-//W3C//DTD SVG 1.1//EN" "http://www.w3.org/Graphics/SVG/1.1/DTD/svg11.dtd"><svg t="1610768313606" class="icon" viewBox="0 0 1024 1024" version="1.1" xmlns="http://www.w3.org/2000/svg" p-id="2599" xmlns:xlink="http://www.w3.org/1999/xlink" width="200" height="200"><defs><style type="text/css"></style></defs><path d="M512.000301 0.000602A511.337111 511.337111 0 0 0 0.000602 512.000301C0.000602 795.286723 228.71388 1024 512.000301 1024c283.286422 0 511.999699-228.713277 511.999699-511.999699C1024 228.71388 795.286723 0.000602 512.000301 0.000602" fill="#DBDBDB" p-id="2600"></path><path d="M727.040175 727.040175a37.104919 37.104919 0 0 1-51.19997 0L512.000301 563.200271l-163.839903 163.839904a37.104919 37.104919 0 0 1-51.19997 0 37.104919 37.104919 0 0 1 0-51.19997L460.800331 512.000301 296.960428 348.160398a37.104919 37.104919 0 0 1 0-51.19997 37.104919 37.104919 0 0 1 51.19997 0L512.000301 460.800331l163.839904-163.839903a37.104919 37.104919 0 0 1 51.19997 0 37.104919 37.104919 0 0 1 0 51.19997L563.200271 512.000301l163.839904 163.839904a31.984922 31.984922 0 0 1 0 51.19997z" fill="#A8A7A7" p-id="2601"></path></svg>