<?xml version="1.0" standalone="no"?><!DOCTYPE svg PUBLIC "-//W3C//DTD SVG 1.1//EN" "http://www.w3.org/Graphics/SVG/1.1/DTD/svg11.dtd"><svg t="1610881323093" class="icon" viewBox="0 0 1024 1024" version="1.1" xmlns="http://www.w3.org/2000/svg" p-id="9990" xmlns:xlink="http://www.w3.org/1999/xlink" width="200" height="200"><defs><style type="text/css"></style></defs><path d="M500.2 970.5c-97 0-194.2-9.2-289-27.3l-3.3-0.6c-7.2-1.4-12.7-7.3-13.7-14.6-12.4-98-4-196 24.9-291.2 28.9-95.1 77.1-183.3 143.2-262.1l4.6-5.5c3.2-3.9 8-6.1 13-6.1h270.6c9 0 16.4 7 17 15.9 62.4 76.6 108.1 161.7 135.9 253.3 29 95.2 37.3 193.1 24.9 291.2-0.9 7.2-6.3 13-13.4 14.5-98.7 20.7-200.2 31.6-301.6 32.5h-13.1z m-273.7-59.1c94.1 17.4 190.5 25.8 286.6 25 95.1-0.8 190.2-10.7 283-29.3 9.7-89.2 1.2-178.3-25.1-264.9-27-88.6-71.5-171-132.5-245H387.9C325 472.3 279.2 556.3 251.7 646.7c-26.4 86.6-34.8 175.6-25.2 264.7z" fill="#2A394D" p-id="9991"></path><path d="M500.2 875.2c-97 0-194.2-9.2-289-27.3-9.2-1.8-15.3-10.7-13.5-19.9 1.8-9.2 10.7-15.3 19.9-13.5 97 18.5 196.4 27.5 295.6 26.7 99.2-0.9 198.4-11.5 294.9-31.7 9.2-1.9 18.2 4 20.1 13.2s-4 18.2-13.2 20.1c-98.7 20.7-200.2 31.6-301.6 32.5-4.4-0.1-8.8-0.1-13.2-0.1z m-117.5-478c-8.2 0-15.4-5.9-16.8-14.2l-30-181v-0.1c-3.1-19.8 3.6-39.9 18.1-53.8 14.4-13.9 34.8-19.9 54.5-16.1 44.1 8.6 79.3 22.5 104.8 41.3 25.6-18.8 60.8-32.7 104.8-41.3 19.7-3.8 40.1 2.2 54.5 16.1 14.4 13.9 21.2 34 18.1 53.8v0.1l-30 181c-1.5 9.3-10.3 15.5-19.5 14-9.3-1.5-15.5-10.3-14-19.6l30-180.9c1.4-9-1.6-17.7-8.1-24-6.6-6.3-15.4-8.9-24.4-7.2-44.3 8.6-78.8 23.3-99.9 42.5-6.5 5.9-16.4 5.9-22.8 0-21.1-19.1-55.7-33.8-99.9-42.5-8.9-1.7-17.8 0.9-24.4 7.2-6.5 6.3-9.5 15-8.1 24l30 180.9c1.5 9.3-4.7 18-14 19.6-1 0.1-1.9 0.2-2.9 0.2z" fill="#2A394D" p-id="9992"></path><path d="M394.6 158.9c-9.4 0-17-7.6-17-17V71c0-9.4 7.6-17 17-17s17 7.6 17 17v70.9c0 9.4-7.6 17-17 17z m237.5 0c-9.4 0-17-7.6-17-17V71c0-9.4 7.6-17 17-17s17 7.6 17 17v70.9c0 9.4-7.6 17-17 17z" fill="#2A394D" p-id="9993"></path></svg>