<?xml version="1.0" standalone="no"?><!DOCTYPE svg PUBLIC "-//W3C//DTD SVG 1.1//EN" "http://www.w3.org/Graphics/SVG/1.1/DTD/svg11.dtd"><svg t="1610690798442" class="icon" viewBox="0 0 1024 1024" version="1.1" xmlns="http://www.w3.org/2000/svg" p-id="17277" xmlns:xlink="http://www.w3.org/1999/xlink" width="200" height="200"><defs><style type="text/css"></style></defs><path d="M345 452.2c-96.5 0-175-78.5-175-175s78.5-175 175-175 175 78.5 175 175-78.5 175-175 175z m0-340c-91 0-165 74-165 165s74 165 165 165 165-74 165-165-74-165-165-165z" fill="" p-id="17278"></path><path d="M695.4 87.6l-12.8-5.9c-7-3.3-15.4-0.2-18.7 6.8l-5.9 12.8-172.4 370.8c-3.3 7-0.2 15.4 6.8 18.7 7 3.3 15.4 0.2 18.7-6.8l166.5-358.1c3.3-7 11.6-10.1 18.7-6.8l81.6 37.9c7 3.3 15.4 0.2 18.7-6.8 3.3-7 0.2-15.4-6.8-18.7l-94.4-43.9z" fill="#FF3B59" p-id="17279"></path><path d="M498.3 497.1c-2.7 0-5.5-0.6-8-1.8-4.6-2.2-8.1-6-9.8-10.8-1.8-4.8-1.5-10 0.6-14.6L653.5 99.2l5.9-12.8c2.2-4.6 6-8.1 10.8-9.9 4.8-1.8 10-1.5 14.6 0.6l12.8 5.9 94.4 43.9c4.6 2.2 8.1 6 9.9 10.8 1.8 4.8 1.5 10-0.6 14.6-4.5 9.5-15.9 13.7-25.4 9.2l-81.6-37.9c-4.5-2.1-9.9-0.1-12.1 4.4L515.6 486.1c-2.2 4.6-6 8.1-10.8 9.9-2.1 0.7-4.3 1.1-6.5 1.1zM676.7 85.4c-1 0-2.1 0.2-3.1 0.6-2.3 0.8-4.1 2.5-5.2 4.7l-5.9 12.8-172.4 370.7c-1 2.2-1.1 4.6-0.3 6.9 0.8 2.3 2.5 4.1 4.7 5.2 2.2 1 4.6 1.1 6.9 0.3 2.3-0.8 4.1-2.5 5.2-4.7l166.5-358.1c4.5-9.5 15.8-13.6 25.3-9.2l81.6 37.9c2.2 1 4.6 1.1 6.9 0.3 2.3-0.8 4.1-2.5 5.2-4.7 1-2.2 1.1-4.6 0.3-6.9-0.8-2.3-2.5-4.1-4.7-5.2l-94.4-43.9-12.8-5.9c-1.2-0.5-2.5-0.8-3.8-0.8z" fill="" p-id="17280"></path><path d="M339.6 249.4c1.6 3.4 6.4 3.4 8 0l49-107.8c1-2.2 0-4.9-2.3-5.9-15.6-6.7-32.7-10.4-50.7-10.4s-35.2 3.7-50.7 10.4c-2.3 1-3.3 3.6-2.3 5.9l49 107.8z m-139.2 6.3l117.8 11.5c3.8 0.4 6.2-3.9 4-6.9L253.3 164c-1.4-2-4.2-2.4-6.2-1-13.6 10.1-25.4 23.1-34.4 38.7s-14.4 32.3-16.3 49.1c-0.2 2.4 1.6 4.6 4 4.9zM319 287.5L201.2 299c-2.5 0.2-4.2 2.4-3.9 4.9 2 16.8 7.3 33.5 16.3 49.1s20.8 28.6 34.4 38.7c2 1.5 4.8 1 6.2-1l68.9-96.3c2.1-3-0.3-7.2-4.1-6.9z m30 16.5c-1.6-3.4-6.4-3.4-8 0l-49 107.8c-1 2.2 0 4.9 2.3 5.9 15.6 6.7 32.7 10.4 50.7 10.4s35.2-3.7 50.7-10.4c2.3-1 3.3-3.6 2.3-5.9L349 304z m139.2-6.3l-117.8-11.5c-3.8-0.4-6.2 3.9-4 6.9l68.9 96.3c1.4 2 4.2 2.4 6.2 1 13.6-10.1 25.4-23.1 34.4-38.7s14.4-32.3 16.3-49.1c0.2-2.4-1.6-4.6-4-4.9z m-118.6-31.8l117.8-11.5c2.5-0.2 4.2-2.4 3.9-4.9-2-16.8-7.3-33.5-16.3-49.1s-20.8-28.6-34.4-38.7c-2-1.5-4.8-1-6.2 1L365.6 259c-2.2 3 0.2 7.2 4 6.9z" fill="#FFAF2E" p-id="17281"></path><path d="M702.8 287.2c0-5.5-4.5-10-10-10H350.1c-5.5 0-10 4.5-10 10 0 0-122.7 259.7-77.7 332.1 29.5 47.4 114.1 73.1 207.9 79 15.8 1 28.1 14.1 28.1 29.9V846c0 13-8.4 24.6-20.8 28.6l-120.1 38.6c-5.4 1.7-4.2 9.8 1.5 9.8h327.7c5.7 0 7-8 1.5-9.8L568 874.5c-12.4-4-20.8-15.5-20.8-28.6V728.1c0-15.8 12.2-28.9 27.9-29.9 92.8-6.2 176.1-31.8 205.3-78.8 45.1-72.5-77.6-332.2-77.6-332.2z" fill="#4AD1CD" p-id="17282"></path><path d="M686.7 928H359c-5 0-9.1-3.5-9.9-8.5-0.8-5 2-9.6 6.9-11.1l120.1-38.6c10.4-3.3 17.3-12.9 17.3-23.8V728.2c0-13.1-10.3-24.1-23.4-24.9-49-3.1-93.8-11.5-129.4-24.2-40-14.3-67.7-33.5-82.4-57.1-19.5-31.4-12.3-97.8 21.5-197.4 23.3-68.7 51.7-130.3 55.5-138.5 0.6-7.7 7.1-13.8 15-13.8h342.7c7.9 0 14.3 6.1 15 13.8 3.8 8.2 32.3 69.9 55.5 138.5 33.7 99.7 40.9 166.1 21.4 197.5-27.7 44.5-103.9 74.1-209.2 81.1-13 0.8-23.2 11.8-23.2 24.9v117.8c0 10.9 7 20.5 17.3 23.8l120.2 38.7c4.8 1.6 7.6 6.2 6.9 11.1-1 5-5.1 8.5-10.1 8.5z m-327.8-10z m0.1 0H686.6l-120.2-38.7c-14.5-4.7-24.3-18.1-24.3-33.4V728.1c0-18.4 14.3-33.7 32.6-34.9 47.6-3.2 90.8-11.4 125.1-23.8 37.3-13.5 62.9-31.2 76.3-52.6 17.6-28.3 9.9-93.7-22.4-189-24.7-72.9-55.2-137.7-55.5-138.4l-0.5-1v-1.1c0-2.8-2.2-5-5-5H350.1c-2.8 0-5 2.2-5 5v1.1l-0.5 1c-0.3 0.6-30.9 65.6-55.5 138.4-32.3 95.3-40 160.6-22.4 188.9 13.5 21.6 39.5 39.5 77.3 53 34.8 12.4 78.6 20.6 126.7 23.7 18.4 1.2 32.8 16.5 32.8 34.9V846c0 15.3-9.8 28.7-24.3 33.4L359 918z m-0.1 0c0.1 0 0.1-0.1 0 0l-2.5-4.3 2.5 4.3z" fill="" p-id="17283"></path><path d="M370.1 366.5m-14 0a14 14 0 1 0 28 0 14 14 0 1 0-28 0Z" fill="#FFFFFF" p-id="17284"></path><path d="M370.1 385.5c-10.5 0-19-8.5-19-19s8.5-19 19-19 19 8.5 19 19-8.5 19-19 19z m0-28c-5 0-9 4-9 9s4 9 9 9 9-4 9-9-4-9-9-9z" fill="" p-id="17285"></path><path d="M318.2 605.5c-4.1 0-8-2.6-9.4-6.6-4.3-12.2-6.3-41.1 9.2-109.4 0.2-0.8 17.8-77.7 28.5-88.5 3.9-3.9 10.2-3.9 14.1 0 3.8 3.8 3.9 9.8 0.4 13.7-3.7 5.6-15 40.8-24.2 82-15.4 69.4-10.9 90.7-9.2 95.5 1.9 5.2-0.9 10.9-6.1 12.8-1.1 0.4-2.2 0.5-3.3 0.5z m42.4-190.4z" fill="#FFFFFF" p-id="17286"></path><path d="M318.2 610.5c-6.4 0-12-4-14.1-9.9-6.6-18.8-3.6-56.5 9-112.2l0.1-0.5c5.5-23.8 19.5-80.2 29.7-90.4 2.8-2.8 6.6-4.4 10.6-4.4s7.8 1.6 10.6 4.4c5.5 5.5 5.9 14.3 0.9 20.2-3.2 5.3-14.1 38.8-23.3 80.1-15.5 69.7-10.5 89.5-9.4 92.7 2.8 7.7-1.3 16.3-9.1 19.2-2 0.7-3.8 0.8-5 0.8z m4.7-119.9c-16 70.5-12.7 97.1-9.4 106.6 0.7 1.9 2.6 3.3 4.7 3.3 0.7 0 1.2-0.1 1.6-0.2 2.6-1 4-3.8 3.1-6.4-2.4-6.7-6.2-29.6 9-98.3 8.9-39.7 20.5-77 24.9-83.7l0.2-0.3 0.2-0.3c1.8-2 1.7-5-0.2-6.8-1.9-1.9-5.1-1.9-7 0-5.5 5.6-16.4 40-27.1 85.7v0.4z" fill="" p-id="17287"></path></svg>