<?xml version="1.0" standalone="no"?><!DOCTYPE svg PUBLIC "-//W3C//DTD SVG 1.1//EN" "http://www.w3.org/Graphics/SVG/1.1/DTD/svg11.dtd"><svg t="1611475017773" class="icon" viewBox="0 0 1024 1024" version="1.1" xmlns="http://www.w3.org/2000/svg" p-id="50877" xmlns:xlink="http://www.w3.org/1999/xlink" width="200" height="200"><defs><style type="text/css"></style></defs><path d="M808.903111 28.444444H215.096889A101.632 101.632 0 0 0 113.777778 129.763556v753.095111A101.632 101.632 0 0 0 215.096889 984.177778h593.806222A101.632 101.632 0 0 0 910.222222 882.858667V129.763556A101.632 101.632 0 0 0 808.903111 28.444444zM256.796444 92.16h509.724445a79.018667 79.018667 0 0 1 79.985778 79.331556v76.913777c-72.647111 63.374222-215.665778 100.977778-334.506667 100.977778S250.140444 311.779556 177.493333 248.405333V171.491556A79.018667 79.018667 0 0 1 256.824889 92.16z m509.724445 828.302222H256.824889a79.018667 79.018667 0 0 1-79.303111-79.331555V333.767111A723.825778 723.825778 0 0 0 512 413.098667c116.224 0.910222 230.968889-26.197333 334.506667-79.018667v507.363556a79.018667 79.018667 0 0 1-79.331556 79.018666h-0.625778z" fill="#2A394D" p-id="50878"></path><path d="M391.566222 604.245333m28.444445 0l197.973333 0q28.444444 0 28.444444 28.444445l0 6.826666q0 28.444444-28.444444 28.444445l-197.973333 0q-28.444444 0-28.444445-28.444445l0-6.826666q0-28.444444 28.444445-28.444445Z" fill="#2A394D" p-id="50879"></path><path d="M391.566222 706.901333m28.444445 0l197.973333 0q28.444444 0 28.444444 28.444445l0 6.826666q0 28.444444-28.444444 28.444445l-197.973333 0q-28.444444 0-28.444445-28.444445l0-6.826666q0-28.444444 28.444445-28.444445Z" fill="#2A394D" p-id="50880"></path><path d="M550.855111 600.832v197.973333a28.444444 28.444444 0 0 1-28.444444 28.444445h-6.826667a28.444444 28.444444 0 0 1-28.444444-28.444445v-197.973333a28.444444 28.444444 0 0 1 28.444444-28.444444h6.826667a28.444444 28.444444 0 0 1 28.444444 28.444444z" fill="#2A394D" p-id="50881"></path><path d="M609.166222 467.569778l-90.168889 90.168889-90.168889-90.168889a31.857778 31.857778 0 0 0-44.885333 0 31.857778 31.857778 0 0 0 0 44.942222l67.527111 67.527111 27.306667 27.306667a56.888889 56.888889 0 0 0 80.469333 0l27.306667-27.306667 68.807111-67.555555a31.857778 31.857778 0 0 0 0-44.913778 31.857778 31.857778 0 0 0-46.193778 0z" fill="#2A394D" p-id="50882"></path></svg>