<?xml version="1.0" standalone="no"?><!DOCTYPE svg PUBLIC "-//W3C//DTD SVG 1.1//EN" "http://www.w3.org/Graphics/SVG/1.1/DTD/svg11.dtd"><svg t="1611473962945" class="icon" viewBox="0 0 1024 1024" version="1.1" xmlns="http://www.w3.org/2000/svg" p-id="39784" xmlns:xlink="http://www.w3.org/1999/xlink" width="200" height="200"><defs><style type="text/css"></style></defs><path d="M648.512 443.712l256-341.312a28.48 28.48 0 0 0-45.504-34.112l-256 341.312a28.48 28.48 0 0 0 45.504 34.112z" fill="#2A394D" p-id="39785" data-spm-anchor-id="a313x.7781069.0.i32" class="selected"></path><path d="M739.584 597.312a199.104 199.104 0 0 0-342.912-137.728 28.48 28.48 0 0 0 41.024 39.36 142.208 142.208 0 0 1 244.928 98.368 28.416 28.416 0 0 0 56.96 0z" fill="#2A394D" p-id="39786" data-spm-anchor-id="a313x.7781069.0.i25" class="selected"></path><path d="M443.968 606.272A199.104 199.104 0 0 0 256 341.376a28.416 28.416 0 0 0 0 56.832 142.208 142.208 0 0 1 134.272 189.248 28.416 28.416 0 0 0 53.696 18.816zM869.952 357.952a170.688 170.688 0 0 0-237.888 108.16 28.416 28.416 0 1 0 54.72 15.232 113.792 113.792 0 0 1 158.592-72.064 28.48 28.48 0 0 0 24.576-51.328zM598.08 442.624a199.04 199.04 0 0 0-65.024-269.632 28.416 28.416 0 1 0-30.4 48.064 142.08 142.08 0 0 1 46.528 192.576 28.352 28.352 0 1 0 48.896 28.992z" fill="#2A394D" p-id="39787" data-spm-anchor-id="a313x.7781069.0.i27" class="selected"></path><path d="M628.992 220.16c-24.512 13.504-45.44 32.832-60.8 56.32a28.416 28.416 0 1 0 47.616 31.04c10.24-15.616 24.192-28.544 40.576-37.504a28.416 28.416 0 0 0-27.392-49.856z" fill="#2A394D" p-id="39788" data-spm-anchor-id="a313x.7781069.0.i33" class="selected"></path><path d="M190.144 795.008C49.536 748.16 0 709.248 0 654.208v-56.896c0-15.68 12.736-28.416 28.416-28.416h967.104c15.744 0 28.48 12.736 28.48 28.416v56.896c0 55.04-49.536 93.888-190.144 140.736-53.44 17.792-122.816 35.52-208.128 53.12v90.56a28.416 28.416 0 0 1-28.416 28.416H426.688a28.416 28.416 0 0 1-28.416-28.416v-90.56c-85.376-17.536-154.688-35.264-208.128-53.056zM56.896 625.792v28.416c0 22.016 31.808 46.976 151.232 86.784 55.616 18.56 130.368 37.248 224.128 56a28.416 28.416 0 0 1 22.848 27.904v85.312h113.792v-85.312c0-13.568 9.6-25.216 22.848-27.904 93.76-18.752 168.512-37.44 224.128-56 119.424-39.808 151.232-64.768 151.232-86.784v-28.416H56.896z" fill="#2A394D" p-id="39789" data-spm-anchor-id="a313x.7781069.0.i28" class="selected"></path><path d="M312.896 967.104h398.208a28.416 28.416 0 0 0 0-56.832H312.896a28.416 28.416 0 0 0 0 56.832zM256 341.312a199.104 199.104 0 0 0-187.712 265.6 28.544 28.544 0 0 0 36.288 17.344 28.544 28.544 0 0 0 17.344-36.288A142.208 142.208 0 0 1 256 398.208a28.416 28.416 0 0 0 0-56.896zM935.424 611.136a170.688 170.688 0 0 0-65.984-253.44 28.48 28.48 0 0 0-24.384 51.392 113.792 113.792 0 0 1 44.032 168.96 28.48 28.48 0 0 0 46.336 33.088z" fill="#2A394D" p-id="39790" data-spm-anchor-id="a313x.7781069.0.i29" class="selected"></path><path d="M533.056 172.992a199.104 199.104 0 0 0-305.472 168.32l-0.064 3.776-0.256 4.352c-0.64 11.648-0.64 17.152 0.704 25.024a28.48 28.48 0 0 0 56.128-9.28 63.488 63.488 0 0 1 0-12.672l0.256-5.056c0.128-2.88 0.128-2.88 0.128-6.08a142.208 142.208 0 0 1 218.176-120.256 28.416 28.416 0 1 0 30.4-48.128zM885.696 383.616c0-95.552-81.408-184.512-174.592-184.512-29.056 0-57.152 7.296-82.112 20.992a28.416 28.416 0 1 0 27.456 49.856c16.576-9.088 35.264-13.952 54.656-13.952 60.608 0 117.696 62.4 117.696 127.616a28.416 28.416 0 0 0 56.896 0z" fill="#2A394D" p-id="39791" data-spm-anchor-id="a313x.7781069.0.i30" class="selected"></path><path d="M657.472 269.376c33.344-20.224 53.632-58.048 53.632-98.688a113.792 113.792 0 1 0-227.52 0c0 6.016 0.96 12.032 2.624 18.88 0.576 2.368 1.024 3.968 2.048 7.488l2.24 7.616a28.416 28.416 0 1 0 54.784-15.296l-2.368-8.064-1.472-5.312a34.048 34.048 0 0 1-1.024-5.312 56.896 56.896 0 1 1 113.792 0c0 21.184-10.304 40.384-26.304 50.112a28.48 28.48 0 0 0 29.568 48.576z" fill="#2A394D" p-id="39792" data-spm-anchor-id="a313x.7781069.0.i31" class="selected"></path></svg>