<?xml version="1.0" standalone="no"?><!DOCTYPE svg PUBLIC "-//W3C//DTD SVG 1.1//EN" "http://www.w3.org/Graphics/SVG/1.1/DTD/svg11.dtd"><svg t="1610627412054" class="icon" viewBox="0 0 1024 1024" version="1.1" xmlns="http://www.w3.org/2000/svg" p-id="80114" xmlns:xlink="http://www.w3.org/1999/xlink" width="200" height="200"><defs><style type="text/css"></style></defs><path d="M229.92 102.24S298.16 48 352.72 74.96s109.12 136.4 109.12 163.68S448 347.76 434.56 375.04 380 429.6 366.4 429.6s-13.68 54.56 13.68 95.52S475.52 688.8 502.8 688.8 598.24 648 598.24 648s163.68 68.24 190.96 109.12 40.96 190.96-54.56 218.24-313.76-54.56-354.64-109.12-218.24-341.04-232-422.88 0-313.76 40.96-327.36z" fill="#A4E3FF" p-id="80115"></path><path d="M380 825.2s-11.44-4.24-13.68-13.68c-2.88-12.48-63.28-50.96 40.96-54.56C544 752 572.72 934.72 666.48 947.92c95.52 13.44-54.56 27.28-54.56 27.28s-204.64-122.8-218.24-150.08-13.68 0.08-13.68 0.08z" fill="#8DE1FF" p-id="80116"></path><path d="M650.56 1001.2c-146.32 0-321.68-134.72-436.32-335.2C65.76 406.16 68.96 135.12 221.6 48.88a206.64 206.64 0 0 1 112-25.28 72 72 0 0 1 9.36-0.88h1.92c67.2 0 128.64 83.52 142.88 194.32 9.28 72-4.4 137.52-36.72 174.72a84.48 84.48 0 0 1-62.8 31.04 8.8 8.8 0 0 0-3.6 1.76 25.68 25.68 0 0 0-0.72 17.6 859.68 859.68 0 0 0 49.12 100.48 856 856 0 0 0 67.76 101.2l0.8 0.88c4.24 4.72 7.04 4.72 8 4.72a29.44 29.44 0 0 0 13.92-5.12c16-21.84 42.72-33.76 75.68-33.76 44.24 0 97.04 21.28 144.72 58.48 87.52 68.16 123.44 160 91.52 217.76l-6 10.72A234.96 234.96 0 0 1 752 976a202.8 202.8 0 0 1-101.12 25.6zM600 665.52c-10.8 0-25.12 2.16-32 12.56a27.44 27.44 0 0 1-5.36 6.24 88 88 0 0 1-52.56 20.16 65.36 65.36 0 0 1-47.2-20.24 28 28 0 0 1-4-4.16 911.2 911.2 0 0 1-74.16-110.32 917.6 917.6 0 0 1-53.36-109.52 28.24 28.24 0 0 1-1.44-4.72c-5.68-27.2-1.76-49.36 11.6-65.68A64 64 0 0 1 387.52 368a28.08 28.08 0 0 0 21.44-11.84c21.52-24.8 30.8-76.56 24-131.84-10.8-83.68-55.2-146.24-88-146.24a24 24 0 0 0-3.84 0.48 29.28 29.28 0 0 1-6.88 0.48 152 152 0 0 0-84.56 18C128 165.28 133.92 413.6 262.72 638.88c103.44 180.88 262.88 307.28 387.84 307.28a147.36 147.36 0 0 0 73.52-18.16 171.36 171.36 0 0 0 60.4-61.44c1.28-2.16 2.8-4.72 5.12-8.96 14.8-27.36-14.08-94.32-79.52-145.28-37.52-29.2-78.72-46.64-110.32-46.64zM687.52 480a28.56 28.56 0 0 1-5.12 0 27.76 27.76 0 0 1-22.56-32 40 40 0 0 0-6.64-30.64A41.2 41.2 0 0 0 626.56 400a27.76 27.76 0 1 1 10.16-54.64 97.12 97.12 0 0 1 62.72 40 95.12 95.12 0 0 1 16 72A28 28 0 0 1 687.52 480z m94.88-2a28.48 28.48 0 0 1-5.12-0.48 27.76 27.76 0 0 1-22.56-32 114.32 114.32 0 0 0-92.64-132.8 27.76 27.76 0 0 1-22.56-32A28.08 28.08 0 0 1 672 258a169.92 169.92 0 0 1 137.76 197.44 28 28 0 0 1-27.6 22.8z m108.72 30.32a28.96 28.96 0 0 1-5.12-0.48 27.84 27.84 0 0 1-22.56-32 232 232 0 0 0-38.24-176.4A237.04 237.04 0 0 0 672 201.36a27.76 27.76 0 0 1-22.56-32 28.08 28.08 0 0 1 32.64-22.32 292.8 292.8 0 0 1 189.28 121.04 286.8 286.8 0 0 1 47.28 217.92 28 28 0 0 1-27.6 22.8z m0 0" fill="#333333" p-id="80117"></path></svg>