<?xml version="1.0" standalone="no"?><!DOCTYPE svg PUBLIC "-//W3C//DTD SVG 1.1//EN" "http://www.w3.org/Graphics/SVG/1.1/DTD/svg11.dtd"><svg t="1610627388611" class="icon" viewBox="0 0 1024 1024" version="1.1" xmlns="http://www.w3.org/2000/svg" p-id="79818" xmlns:xlink="http://www.w3.org/1999/xlink" width="200" height="200"><defs><style type="text/css"></style></defs><path d="M831.3856 335.5648C947.712 306.2784 1018.88 416.1536 965.632 488.96c-14.6432-72.8064-36.352-74.24-76.6976-76.6976 89.2928 72.9088 57.7536 176.2304 0 211.0464 10.5472-109.9776-10.6496-139.0592-38.4-153.4976 3.584 84.0704-8.2944 117.8624-114.9952 153.4976 60.928-107.4176 57.1392-165.6832 38.4-191.7952-82.1248 123.8016-114.4832 265.5232-126.976 367.5136l-58.2656-3.9936C614.0928 534.6304 706.2528 422.7072 754.688 393.1136c-78.1312-11.0592-93.4912 11.264-153.3952 76.6976C562.8928 346.5216 664.064 318.464 716.288 316.416c-15.872-26.624-68.7104-28.3648-115.0976-19.2512 38.4-95.8464 207.36-99.9424 230.1952 38.4z" fill="#78BDFF" p-id="79819"></path><path d="M646.8608 798.9248C755.9168 809.984 922.9312 847.6672 1024 972.5952H58.5728c55.0912-87.7568 201.1136-154.8288 382.7712-173.056-11.1616-256.2048-19.8656-418.6112-166.0928-483.2256-14.4384 115.0976 29.2864 232.96 76.6976 287.744-166.6048-4.5056-186.88-163.2256-172.6464-230.1952-22.4256 30.72-64.6144 55.3984-68.5056 194.1504C-2.9696 464.6912 59.2896 362.7008 121.856 297.1648c-25.088 9.728-53.3504 18.7392-121.856 76.6976 17.1008-240.9472 236.8512-172.6464 236.8512-172.6464 5.8368-140.0832 210.944-214.4256 326.0416-76.6976-121.9584-12.6976-152.4736 17.92-172.6464 57.5488 183.7056-17.1008 183.5008 151.552 172.6464 230.1952C468.7872 278.016 420.864 269.9264 332.8 278.016c142.4384 101.2736 180.4288 355.0208 189.7472 516.7104 6.2464-0.1024 12.4928-0.2048 18.7392-0.2048 4.4032 0 21.504-0.512 47.3088 0.4096l58.2656 3.9936z" fill="#006ACE" p-id="79820"></path></svg>