<?xml version="1.0" standalone="no"?><!DOCTYPE svg PUBLIC "-//W3C//DTD SVG 1.1//EN" "http://www.w3.org/Graphics/SVG/1.1/DTD/svg11.dtd"><svg t="1610627468946" class="icon" viewBox="0 0 1024 1024" version="1.1" xmlns="http://www.w3.org/2000/svg" p-id="81010" xmlns:xlink="http://www.w3.org/1999/xlink" width="200" height="200"><defs><style type="text/css"></style></defs><path d="M352.205 187.597s4.864 62.105 61.286 175.82h212.736v35.585c73.165-137.421 71.117-225.127 71.117-225.127V86.682c0-7.578-4.25-30.31-38.4-30.31-34.1 0-30.31 33.177-30.31 33.177v49.766s-67.687 20.583-124.98 67.277c0 0-83.507-60.672-125.184-67.277V89.55s1.23-37.888-30.31-33.178c-1.792 13.568-0.512 35.38-0.512 43.008s4.557 88.218 4.557 88.218z m553.728 699.29c-28.416-217.293-228.967-393.165-289.024-455.732-3.226-3.379-3.789-8.448-1.485-12.493 3.789-6.656 7.322-13.158 10.752-19.61H431.974c3.482 6.4 7.066 12.954 10.855 19.61 2.304 4.045 1.74 9.114-1.485 12.493-60.109 62.618-247.296 263.015-300.902 464.282-8.807 33.075-19.252 57.344 15.001 58.675 32.973 1.331 60.16-25.037 60.16-57.754 0 31.898 25.856 57.805 57.805 57.805 31.898 0 57.805-25.856 57.805-57.805 0 31.898 25.856 57.805 57.805 57.805s57.804-25.856 57.804-57.805c0 31.898 25.856 57.805 57.805 57.805 31.898 0 57.805-25.856 57.805-57.805 0 31.898 25.856 57.805 57.805 57.805 31.949 0 57.805-25.856 57.805-57.805 0 31.898 25.856 57.805 57.804 57.805 31.898 0 57.805-25.856 57.805-57.805 0 32.717 25.037 59.085 58.061 57.754 34.1-1.331 58.675-33.28 54.22-67.226z" fill="#84DDFD" p-id="81011"></path><path d="M621.62 419.942H435.762l-15.36-35.635H621.62z" fill="#EDC951" p-id="81012"></path><path d="M921.19 884.89c-25.958-198.554-190.003-361.575-268.85-439.91-8.346-8.295-15.72-15.617-21.76-21.863 83.506-148.89 82.226-245.555 82.124-249.293V86.682c0-15.821-11.213-45.67-53.76-45.67-18.38 0-28.98 7.577-34.662 13.926-11.725 13.158-11.367 30.464-11.008 35.276v38.042c-20.583 7.424-66.816 26.266-110.08 59.136-21.556-15.002-72.448-48.794-109.364-60.16V90.214c0.359-4.761 0.717-22.067-11.008-35.225-5.683-6.349-16.281-13.927-34.662-13.927-42.496 0-53.76 29.901-53.76 45.67v86.836c-0.102 4.045-1.382 100.71 82.125 249.651-6.042 6.247-13.415 13.568-21.76 21.863-78.848 78.336-242.944 241.408-268.851 439.91-2.765 21.248 3.481 42.752 17.254 59.034 13.21 15.667 31.59 24.73 51.712 25.548 1.024 0.052 1.997 0.052 2.97 0.052 18.995 0 36.915-7.168 50.636-20.43a73.313 73.313 0 0 0 7.117-7.884c13.415 17.203 34.304 28.314 57.754 28.314 23.5 0 44.39-11.11 57.805-28.365 13.414 17.254 34.304 28.365 57.804 28.365s44.39-11.11 57.805-28.365c13.415 17.254 34.304 28.365 57.805 28.365 23.5 0 44.39-11.11 57.805-28.365 13.414 17.254 34.304 28.365 57.805 28.365s44.39-11.11 57.804-28.365c13.415 17.254 34.304 28.365 57.805 28.365 23.245 0 43.981-10.906 57.395-27.853 2.253 2.97 4.71 5.785 7.424 8.397 13.824 13.312 32.154 20.121 51.661 19.404 20.122-0.819 38.503-9.881 51.712-25.548 13.67-16.333 19.968-37.888 17.203-59.136zM602.573 410.112H404.429c-7.168-12.749-13.722-25.088-19.661-37.018h237.517a895.604 895.604 0 0 1-19.712 37.018zM325.069 173.875V86.682c0-5.581 2.97-14.95 23.04-14.95 5.58 0 9.523 1.228 11.673 3.583 3.328 3.635 3.533 10.496 3.38 12.442a19.841 19.841 0 0 0-0.103 1.74v49.767c0 7.526 5.479 13.978 12.954 15.155 31.18 4.967 96.153 48.282 118.579 64.563 5.632 4.096 13.312 3.892 18.74-0.512 54.118-44.134 119.09-64.307 119.756-64.512a15.375 15.375 0 0 0 10.906-14.694V89.498c0-0.461-0.052-1.127-0.103-1.588-0.205-2.099 0-8.96 3.38-12.646 2.201-2.406 6.092-3.584 11.673-3.584 20.02 0 23.04 9.37 23.04 14.95v87.501c0 0.768 0.46 65.127-45.21 168.192H370.33C324.608 239.31 325.069 174.9 325.069 173.875zM880.435 924.16c-7.577 8.96-18.022 14.182-29.44 14.643-11.161 0.512-21.401-3.43-29.133-10.854-8.345-8.039-12.953-19.251-12.953-31.54 0-8.499-6.861-15.36-15.36-15.36s-15.36 6.861-15.36 15.36c0 23.399-19.047 42.445-42.445 42.445s-42.445-19.046-42.445-42.444c0-8.5-6.86-15.36-15.36-15.36s-15.36 6.86-15.36 15.36c0 23.398-19.046 42.444-42.445 42.444s-42.444-19.046-42.444-42.444c0-8.5-6.861-15.36-15.36-15.36s-15.36 6.86-15.36 15.36c0 23.398-19.047 42.444-42.445 42.444-23.399 0-42.445-19.046-42.445-42.444 0-8.5-6.86-15.36-15.36-15.36s-15.36 6.86-15.36 15.36c0 23.398-19.046 42.444-42.445 42.444s-42.445-19.046-42.445-42.444c0-8.5-6.86-15.36-15.36-15.36s-15.36 6.86-15.36 15.36c0 23.398-19.046 42.444-42.444 42.444-23.399 0-42.445-19.046-42.445-42.444 0-8.5-6.861-15.36-15.36-15.36s-15.36 6.86-15.36 15.36c0 11.673-4.608 22.528-13.056 30.617a41.882 41.882 0 0 1-31.13 11.827c-11.417-0.46-21.862-5.632-29.44-14.643a45.466 45.466 0 0 1-10.24-35.277C140.851 700.826 299.93 542.771 376.32 466.842c9.677-9.626 18.074-17.972 24.832-24.986 0.307-0.307 0.512-0.614 0.768-0.922h17.92c-38.86 73.063-69.069 185.703-70.502 191.028a15.36 15.36 0 0 0 14.848 19.302 15.4 15.4 0 0 0 14.848-11.418c0.358-1.33 35.276-131.584 76.083-198.912h33.024v136.192c0 8.5 6.86 15.36 15.36 15.36s15.36-6.86 15.36-15.36V440.832h34.56c25.958 39.526 65.024 155.75 78.592 199.475a15.309 15.309 0 0 0 14.643 10.803c1.485 0 3.02-0.204 4.557-0.716a15.36 15.36 0 0 0 10.137-19.2c-1.843-5.99-39.987-128.41-72.601-190.413h16.281c0.256 0.307 0.461 0.665 0.768 0.921 6.759 7.015 15.104 15.36 24.832 24.986 76.442 75.93 235.47 233.984 260.045 422.093 1.69 12.8-2.048 25.651-10.24 35.379z" fill="#333333" p-id="81013"></path><path d="M503.5 663.5c-8.498 0-15.36-6.86-15.36-15.36v-9.932c0-8.5 6.862-15.36 15.36-15.36s15.36 6.86 15.36 15.36v9.933c0 8.448-6.86 15.36-15.36 15.36z" fill="#333333" p-id="81014"></path></svg>