<?xml version="1.0" standalone="no"?><!DOCTYPE svg PUBLIC "-//W3C//DTD SVG 1.1//EN" "http://www.w3.org/Graphics/SVG/1.1/DTD/svg11.dtd"><svg t="1610690876148" class="icon" viewBox="0 0 1024 1024" version="1.1" xmlns="http://www.w3.org/2000/svg" p-id="18192" xmlns:xlink="http://www.w3.org/1999/xlink" width="200" height="200"><defs><style type="text/css"></style></defs><path d="M648.533333 692.906667c10.24 0 17.066667-8.533333 17.066667-17.066667v-47.786667h18.773333l29.013334 29.013334V750.933333h-128v-97.28l25.6-25.6H631.466667v47.786667c0 10.24 6.826667 17.066667 17.066666 17.066667z" fill="#09C9FF" p-id="18193"></path><path d="M853.333333 752.64c-15.36-3.413333-30.72 5.12-34.133333 20.48-3.413333 15.36 5.12 30.72 20.48 34.133333 88.746667 20.48 119.466667 46.08 119.466667 61.44 0 44.373333-191.146667 93.866667-448.853334 93.866667S63.146667 913.066667 63.146667 868.693333c0-13.653333 27.306667-40.96 133.12-64.853333 15.36-3.413333 25.6-18.773333 22.186666-34.133333-3.413333-15.36-18.773333-25.6-34.133333-22.186667-119.466667 25.6-177.493333 64.853333-177.493333 119.466667 0 141.653333 419.84 150.186667 505.173333 150.186666 83.626667 0 505.173333-6.826667 505.173333-150.186666 0-51.2-54.613333-88.746667-163.84-114.346667zM568.32 182.613333c25.6 23.893333 25.6 27.306667 20.48 35.84-3.413333 6.826667-10.24 11.946667-15.36 13.653334-13.653333 5.12-20.48 22.186667-15.36 37.546666 5.12 10.24 15.36 17.066667 25.6 17.066667 3.413333 0 6.826667 0 10.24-1.706667 18.773333-6.826667 34.133333-20.48 42.666667-39.253333 25.6-47.786667-8.533333-80.213333-30.72-102.4-29.013333-27.306667-35.84-39.253333-22.186667-64.853333 5.12-8.533333 11.946667-13.653333 22.186667-15.36 15.36-3.413333 25.6-17.066667 23.893333-32.426667-3.413333-15.36-17.066667-25.6-32.426667-23.893333-27.306667 5.12-49.493333 20.48-61.44 44.373333-35.84 64.853333 6.826667 105.813333 32.426667 131.413333zM430.08 358.4c-3.413333 6.826667-8.533333 13.653333-15.36 15.36-13.653333 6.826667-20.48 23.893333-13.653333 37.546667 5.12 10.24 15.36 15.36 25.6 15.36 3.413333 0 8.533333-1.706667 11.946666-3.413334 18.773333-8.533333 34.133333-23.893333 42.666667-42.666666 23.893333-49.493333-6.826667-85.333333-30.72-110.933334-27.306667-29.013333-39.253333-46.08-22.186667-80.213333 5.12-10.24 13.653333-17.066667 22.186667-18.773333 15.36-3.413333 25.6-17.066667 22.186667-32.426667-3.413333-15.36-17.066667-25.6-32.426667-22.186667-27.306667 5.12-49.493333 23.893333-61.44 49.493334-34.133333 69.973333 5.12 114.346667 32.426667 143.36 22.186667 29.013333 25.6 35.84 18.773333 49.493333z" fill="#333333" p-id="18194"></path><path d="M431.786667 877.226667c22.186667 3.413333 54.613333 5.12 87.04 5.12s66.56-1.706667 87.04-5.12c92.16-11.946667 168.96-78.506667 220.16-167.253334h47.786666c59.733333 0 109.226667-49.493333 109.226667-109.226666 0-52.906667-37.546667-97.28-87.04-105.813334 1.706667-15.36 1.706667-30.72 1.706667-46.08V443.733333c1.706667-3.413333 1.706667-8.533333 1.706666-11.946666 0-69.973333-155.306667-102.4-325.973333-105.813334h-34.133333c-10.24 0-17.066667 11.946667-17.066667 20.48v1.706667c0 8.533333 13.653333 18.773333 23.893333 18.773333h32.426667c206.506667 5.12 276.48 51.2 276.48 68.266667 0 6.826667-1.706667 13.653333-10.24 20.48-30.72 22.186667-112.64 44.373333-256 51.2-6.826667 0-17.066667 1.706667-29.013333 1.706667H518.826667c-75.093333-3.413333-235.52 10.24-327.68-56.32-3.413333-3.413333-3.413333-11.946667-3.413334-17.066667 0-15.36 29.013333-37.546667 175.786667-59.733333 8.533333-1.706667 17.066667-10.24 13.653333-27.306667-1.706667-8.533333-8.533333-15.36-17.066666-15.36H358.4c-69.973333 8.533333-216.746667 30.72-216.746667 100.693333v17.066667c0 225.28 122.88 404.48 290.133334 426.666667z m494.933333-274.773334c0 29.013333-23.893333 52.906667-52.906667 52.906667h-17.066666c17.066667-39.253333 27.306667-80.213333 32.426666-102.4 22.186667 5.12 37.546667 25.6 37.546667 49.493333z m-317.44 47.786667l15.36 15.36v63.146667h-83.626667v-66.56l11.946667-11.946667h56.32z m-134.826667-85.333333h80.213334v29.013333H529.066667l-44.373334 44.373333V750.933333c0 18.773333 15.36 34.133333 34.133334 34.133334H648.533333c18.773333 0 34.133333-15.36 34.133334-34.133334v-109.226666l-47.786667-47.786667h-22.186667V563.2c98.986667-5.12 175.786667-18.773333 225.28-39.253333l-1.706666 10.24c-5.12 20.48-18.773333 75.093333-40.96 119.466666l-17.066667 27.306667c-27.306667 46.08-87.04 126.293333-179.2 138.24-18.773333 1.706667-47.786667 3.413333-80.213333 3.413333s-61.44-1.706667-80.213334-3.413333c-121.173333-15.36-213.333333-136.533333-235.52-296.96 87.04 42.666667 196.266667 42.666667 271.36 42.666667z" fill="#333333" p-id="18195"></path></svg>