<?xml version="1.0" standalone="no"?><!DOCTYPE svg PUBLIC "-//W3C//DTD SVG 1.1//EN" "http://www.w3.org/Graphics/SVG/1.1/DTD/svg11.dtd"><svg t="1610627422404" class="icon" viewBox="0 0 1024 1024" version="1.1" xmlns="http://www.w3.org/2000/svg" p-id="80256" xmlns:xlink="http://www.w3.org/1999/xlink" width="200" height="200"><defs><style type="text/css"></style></defs><path d="M840.2688 196.3264h-55.0656V155.9552c0-63.7952-52.1984-115.7376-116.4288-115.7376h-227.5584a116.5312 116.5312 0 0 0-116.3776 116.4288v39.6544h-55.0656a162.944 162.944 0 0 0-162.7392 162.7392V820.736a162.9184 162.9184 0 0 0 162.7392 162.7392h570.496a162.944 162.944 0 0 0 162.7648-162.7392V359.0656a162.8928 162.8928 0 0 0-162.7648-162.7392zM393.2928 156.672c0-26.4704 21.4784-47.9488 47.9232-47.9488h227.5584c26.88 0 47.9744 20.736 47.9744 47.232v40.3712H393.2928V156.672z m541.2864 664.064c0 51.968-42.24 94.336-94.3104 94.336H269.7728a94.464 94.464 0 0 1-94.3104-94.336V359.0656a94.4128 94.4128 0 0 1 94.3104-94.2848h570.496a94.3872 94.3872 0 0 1 94.3104 94.2848V820.736z" fill="#74C3FF" p-id="80257"></path><path d="M745.4464 539.1872h-70.6048v-70.5792c0-20.7104-16.9216-37.6576-37.6064-37.6576h-78.4384c-20.7616 0-37.6832 16.9472-37.6832 37.6576v70.5792H450.56c-20.736 0-37.6832 16.9216-37.6832 37.6832v78.4384c0 20.6848 16.9472 37.632 37.6832 37.632h70.5536v70.6304c0 20.6848 16.9216 37.5808 37.6832 37.5808h78.4384c20.6848 0 37.6064-16.896 37.6064-37.5808v-70.6304h70.6048c20.736 0 37.6832-16.9472 37.6832-37.632v-78.4384c0-20.7616-16.9728-37.6832-37.6832-37.6832z" fill="#74C3FF" p-id="80258"></path><path d="M754.2272 196.48h-55.0656V156.1344c0-63.7952-52.224-115.7376-116.3776-115.7376h-227.6096a116.5312 116.5312 0 0 0-116.3776 116.4288v39.6544H183.7056a162.944 162.944 0 0 0-162.7392 162.7648v461.5936a162.9184 162.9184 0 0 0 162.7392 162.7648h570.5216a162.944 162.944 0 0 0 162.7392-162.7648V359.2448a162.944 162.944 0 0 0-162.7392-162.7648zM297.6 156.8256c0-26.4448 31.1552-59.7504 57.5744-59.7504h227.6096c26.9056 0 58.2912 32.5376 58.2912 59.0592v40.3712H297.6v-39.68z m562.1504 658.6624c0 52.0448-53.504 110.3872-105.4976 110.3872H183.7312c-51.9936 0-107.9808-48.6912-107.9808-100.7616V363.52c0-51.968 68.7872-106.4448 120.7808-106.4448h570.5216c52.0192 0 92.7232 44.8512 92.7232 96.8192v461.5936z" fill="#0092FF" p-id="80259"></path><path d="M616.3712 513.2032h-70.5536v-70.6304c0-20.6848-16.9216-37.632-37.632-37.632h-78.4896c-20.7104 0-37.6064 16.9472-37.6064 37.632v70.6304h-70.6048c-20.7104 0-37.6576 16.9216-37.6576 37.632v78.4384c0 20.6848 16.9472 37.632 37.6576 37.632h70.6048v70.6304c0 20.6848 16.9216 37.6064 37.6064 37.6064h78.4896c20.7104 0 37.632-16.9216 37.632-37.6064v-70.6304h70.5536c20.736 0 37.76-16.9472 37.76-37.632v-78.4384c0-20.7104-17.024-37.632-37.76-37.632z" fill="#0092FF" p-id="80260"></path></svg>