<?xml version="1.0" standalone="no"?><!DOCTYPE svg PUBLIC "-//W3C//DTD SVG 1.1//EN" "http://www.w3.org/Graphics/SVG/1.1/DTD/svg11.dtd"><svg t="1610690830936" class="icon" viewBox="0 0 1024 1024" version="1.1" xmlns="http://www.w3.org/2000/svg" p-id="17578" xmlns:xlink="http://www.w3.org/1999/xlink" width="200" height="200"><defs><style type="text/css"></style></defs><path d="M499.979687 587.748785a19.989335 19.989335 0 0 0-26.645027 9.460431l-3.316716 6.96733a19.989335 19.989335 0 0 0 36.105459 17.184595l3.338975-6.967329a19.989335 19.989335 0 0 0-9.460431-26.645027zM275.912149 471.886324a19.989335 19.989335 0 0 0-28.269995 0 42.560812 42.560812 0 0 1-60.101565 0 19.989335 19.989335 0 0 0-28.292255 28.269995 82.250105 82.250105 0 0 0 58.320778 24.129665c21.146847 0 42.271434-8.035802 58.343037-24.129665 7.813203-7.790944 7.813203-20.479052 0-28.269995z" fill="#2A394D" p-id="17579"></path><path d="M949.85103 53.111975c-70.43013-70.43013-184.890221-70.630469-255.609729-0.667795a481.168676 481.168676 0 0 0-70.207532-28.091916C542.941176-1.023953 476.606856-0.089039 470.886078 0.04452 362.436143 0.111299 267.831828 45.61041 223.957685 118.84528c-5.787558 9.66077-10.617943 19.677698-14.468895 29.984002-20.70165 19.677698-113.970375 116.0628-113.970375 252.76047 0 91.042741-43.785103 138.567497-69.895894 158.801691-9.72755 7.568345-15.025391 19.432839-14.112737 31.74253 0.912653 12.331951 7.879983 23.306051 18.653745 29.360727 9.838849 5.52044 20.901989 10.840542 31.608971 15.960305 9.438172 4.541007 22.883114 10.99636 29.427507 15.18121v35.615742c0 4.874905-0.934913 9.63851-2.76022 14.157258l-4.963944 12.198391c-6.789251 16.694879-4.273889 35.838341 6.499872 50.218197v4.385188c0 12.977486 5.698519 24.997799 15.22573 33.1449v23.46187a91.332119 91.332119 0 0 0 91.22082 91.243079h59.033092a19.989335 19.989335 0 0 0 0-40.00093H196.400005A51.308929 51.308929 0 0 1 145.157856 825.840021v-34.50275a19.989335 19.989335 0 0 0-12.153872-18.386627l-0.868134-0.356158a3.628354 3.628354 0 0 1-2.225984-3.338975v-11.307999a20.011595 20.011595 0 0 0-4.251629-12.35421l-3.539314-4.474228a11.508337 11.508337 0 0 1-1.602709-11.441557l4.941685-12.198392c3.784173-9.326872 5.720779-19.143461 5.720778-29.204908v-42.560812c0-19.27702-19.633178-28.692932-52.154802-44.297079a661.117213 661.117213 0 0 1-25.086839-12.46551c32.165467-26.22209 81.56005-83.474396 81.56005-187.338804 0-75.171476 33.456538-137.788402 62.483368-177.989671 1.580449 34.836648 12.131612 71.253744 31.608971 107.73762 51.331188 95.962165 140.682181 136.185694 212.470161 168.50698 68.337705 30.763097 106.980785 50.106897 107.292424 90.352686 0.222598 29.538806-6.566652 51.286669-20.189674 64.620312-15.737706 15.381549-36.617435 14.980872-36.750994 14.980871a19.655438 19.655438 0 0 0-17.095556 7.790944 19.967075 19.967075 0 0 0-2.80474 18.742784c0.578756 1.691748 14.736013 41.848497 47.190858 80.981294 40.512907 48.904866 91.666016 74.704019 148.695724 75.282775l53.735251 157.51062a19.989335 19.989335 0 1 0 37.841726-12.910707l-52.911637-155.106557c99.724078-53.445873 169.86483-136.363773 203.299108-240.784677 26.645027-83.251797 27.913838-176.631821 5.409141-265.11468A181.484466 181.484466 0 0 0 949.85103 309.41176c70.652728-70.652728 70.652728-185.647056 0-256.299785z m-77.575538 536.01692c-31.386373 97.987811-98.722385 175.162672-194.929409 223.355223-48.637748 2.181464-91.042741-17.89691-126.124247-59.789928a254.875155 254.875155 0 0 1-31.074735-47.413456 91.710536 91.710536 0 0 0 36.283537-21.213627c22.14854-21.213626 33.233939-52.911637 32.922302-94.159118-0.534236-67.847989-63.841218-96.340582-130.887852-126.524924-69.695555-31.386373-148.695723-66.935335-193.593819-150.899447-27.891578-52.154802-34.458231-101.727463-19.588658-145.223189l0.178079-0.489716c3.249936-9.438172 7.501566-18.564706 12.777147-27.379602 36.728734-61.303596 118.333303-99.367921 212.915359-99.367921h0.578756c0.623275-0.04452 63.640879-1.558189 140.348283 22.482437 102.083621 31.987388 177.299616 91.576977 223.511042 177.121538 58.409817 108.116037 72.121878 238.759031 36.684215 349.47947z m31.542191-292.89496a501.42513 501.42513 0 0 0-33.05586-75.616672c-32.811002-60.7471-80.224459-110.609139-139.702749-147.627251 55.426999-46.478543 138.433938-43.696064 190.54422 8.391959a141.416756 141.416756 0 0 1-17.807871 214.851964z" fill="#2A394D" p-id="17580"></path><path d="M524.265171 936.582719L461.625985 828.066005l-2.114685-74.103004a121.382901 121.382901 0 0 0-111.610832-117.643248 110.920777 110.920777 0 0 0-108.717053 62.772746l-0.979433 2.070165a121.983917 121.983917 0 0 0 43.473466 153.837746l62.327548 40.646465 68.137367 117.977146a19.989335 19.989335 0 1 0 34.636309-19.989335L386.231911 888.835365l24.107405-13.912399 24.107405-13.9124 55.182141 95.539229a19.989335 19.989335 0 0 0 34.614049-19.967076z m-164.678288-78.510451l-56.094793-36.550656a81.849427 81.849427 0 0 1-29.160389-103.218873l1.001692-2.092424a70.786288 70.786288 0 0 1 69.317139-40.000931 81.44875 81.44875 0 0 1 74.904357 78.933389l1.914346 67.224713-61.882352 35.704782zM554.249174 989.828254a20.145154 20.145154 0 0 0-14.134998-5.854338 20.122894 20.122894 0 0 0-14.157257 5.854338 20.145154 20.145154 0 0 0-5.854338 14.134997c0 5.253322 2.136945 10.417605 5.854338 14.134998a20.122894 20.122894 0 0 0 14.157257 5.854338 20.145154 20.145154 0 0 0 14.134998-5.854338 20.145154 20.145154 0 0 0 5.854338-14.134998 20.145154 20.145154 0 0 0-5.854338-14.134997zM390.3945 117.198051a19.989335 19.989335 0 0 0-26.24435-10.528903c-35.259585 15.092171-60.680321 40.490647-71.609901 71.565382-10.929581 31.119255-6.833771 66.067202 11.886754 101.059668a19.989335 19.989335 0 1 0 35.259585-18.854084c-13.467202-25.198138-16.650359-48.39289-9.415912-68.96098 7.145408-20.367753 24.775201-37.418789 49.594921-48.036733a19.989335 19.989335 0 0 0 10.528903-26.24435zM439.165807 91.999914h-1.112992a19.989335 19.989335 0 0 0 0.1113 40.00093h1.001692a19.989335 19.989335 0 0 0 0-40.00093z" fill="#2A394D" p-id="17581"></path></svg>