<?xml version="1.0" standalone="no"?><!DOCTYPE svg PUBLIC "-//W3C//DTD SVG 1.1//EN" "http://www.w3.org/Graphics/SVG/1.1/DTD/svg11.dtd"><svg t="1611474670502" class="icon" viewBox="0 0 1024 1024" version="1.1" xmlns="http://www.w3.org/2000/svg" p-id="47728" xmlns:xlink="http://www.w3.org/1999/xlink" width="200" height="200"><defs><style type="text/css"></style></defs><path d="M875.9 855.2H147c-11 0-20-9-20-20s9-20 20-20h728.9c11 0 20 9 20 20s-8.9 20-20 20z" fill="#2A394D" p-id="47729"></path><path d="M147 855.2c-11 0-20-9-20-20V188.6c0-11 9-20 20-20s20 9 20 20v646.6c0 11-8.9 20-20 20zM237.8 677.3c-4.2 0-8.5-1.3-12.1-4.1-8.8-6.7-10.5-19.2-3.8-28l119.9-157.3c6.7-8.8 19.2-10.5 28-3.8s10.5 19.2 3.8 28L253.7 669.4c-3.9 5.2-9.9 7.9-15.9 7.9z" fill="#2A394D" p-id="47730"></path><path d="M479.6 551.9c-1.7 0-3.4-0.2-5.1-0.7l-121.6-31.9c-10.7-2.8-17.1-13.7-14.3-24.4 2.8-10.7 13.7-17.1 24.4-14.3l121.6 31.9c10.7 2.8 17.1 13.7 14.3 24.4-2.3 9.1-10.4 15-19.3 15z" fill="#2A394D" p-id="47731"></path><path d="M481.7 551.8c-4.2 0-8.5-1.3-12.1-4.1-8.8-6.7-10.5-19.2-3.8-28l119.9-157.3c6.7-8.8 19.2-10.5 28-3.8s10.5 19.2 3.8 28L497.7 544c-4 5.1-9.9 7.8-16 7.8zM723.2 426.1c-4.2 0-8.5-1.3-12.1-4.1-8.8-6.7-10.5-19.2-3.8-28l100.2-131.5c6.7-8.8 19.2-10.5 28-3.8s10.5 19.2 3.8 28L739.1 418.2c-3.9 5.2-9.9 7.9-15.9 7.9z" fill="#2A394D" p-id="47732"></path><path d="M723.5 426.5c-1.7 0-3.4-0.2-5.1-0.7l-121.6-31.9c-10.7-2.8-17.1-13.7-14.3-24.4 2.8-10.7 13.7-17.1 24.4-14.3l121.6 31.9c10.7 2.8 17.1 13.7 14.3 24.4-2.3 9-10.4 15-19.3 15z" fill="#2A394D" p-id="47733"></path><path d="M771.5 280.3c-10.1 0-18.8-7.6-19.9-17.9-1.1-11 6.8-20.8 17.8-22l67.2-7c11-1.1 20.8 6.8 22 17.8 1.1 11-6.8 20.8-17.8 22l-67.2 7c-0.7 0.1-1.4 0.1-2.1 0.1z" fill="#2A394D" p-id="47734"></path><path d="M845.2 345.5c-10.2 0-19-7.8-19.9-18.2l-6.5-72.2c-1-11 7.1-20.7 18.1-21.7 11-1 20.7 7.1 21.7 18.1l6.5 72.2c1 11-7.1 20.7-18.1 21.7-0.6 0.1-1.2 0.1-1.8 0.1z" fill="#2A394D" p-id="47735"></path></svg>