<?xml version="1.0" standalone="no"?><!DOCTYPE svg PUBLIC "-//W3C//DTD SVG 1.1//EN" "http://www.w3.org/Graphics/SVG/1.1/DTD/svg11.dtd"><svg t="1610881553861" class="icon" viewBox="0 0 1024 1024" version="1.1" xmlns="http://www.w3.org/2000/svg" p-id="10740" xmlns:xlink="http://www.w3.org/1999/xlink" width="200" height="200"><defs><style type="text/css"></style></defs><path d="M274.432 40.96C157.184 40.96 59.904 147.968 59.904 280.064c0 104.448 62.464 197.12 149.504 229.376-7.68 82.432-34.816 338.944-34.816 376.32 0 54.784 42.496 97.28 97.28 97.28 59.904 0 97.28-37.376 97.28-97.28 0-47.104-27.648-316.416-34.816-376.32 89.6-29.696 149.504-124.416 149.504-229.376C488.448 147.968 393.728 40.96 274.432 40.96z m34.816 431.104h-2.56c-2.56 0-2.56 0-5.12 2.56l-2.56 2.56-2.56 2.56s-2.56 2.56-2.56 5.12c0 0 0 2.56-2.56 5.12v7.68c2.56 34.816 34.816 341.504 34.816 388.608s-34.816 54.784-54.784 54.784c-29.696 0-54.784-25.088-54.784-54.784 0-32.256 22.528-269.312 34.816-388.608v-2.56-5.12c0-2.56 0-2.56-2.56-5.12 0 0 0-2.56-2.56-2.56l-2.56-2.56-2.56-2.56c-2.56 0-2.56-2.56-5.12-2.56h-2.56c-77.312-19.968-134.656-99.84-134.656-192 0-107.008 77.312-194.56 172.032-194.56s172.032 87.04 172.032 194.56c3.584 89.6-53.76 169.472-133.632 189.44zM939.52 40.96c-12.288 0-22.528 9.728-22.528 22.528v246.784c0 77.312-52.224 144.384-122.368 161.792h-2.56s-2.56 0-2.56 2.56l-2.56 2.56 2.56 2.56h-2.56l-2.56 2.56c0 2.56-2.56 2.56-2.56 5.12s-2.56 5.12-2.56 7.68v2.56c0 2.56 37.376 338.944 37.376 388.608 0 47.104-34.816 54.784-54.784 54.784-29.696 0-54.784-25.088-54.784-54.784 0-32.256 25.088-269.312 39.936-388.608v-5.12c0-2.56 0-2.56-2.56-5.12 0-2.56 0-2.56-2.56-2.56l-2.56-2.56-2.56-2.56s-2.56 0-5.12-2.56h-2.56c-72.192-14.848-124.416-84.992-124.416-161.792V63.488c0-12.288-9.728-22.528-22.528-22.528-12.288 0-22.528 9.728-22.528 22.528v246.784c0 89.6 57.344 172.032 139.776 199.168-9.728 82.432-37.376 338.944-37.376 376.32 0 54.784 42.496 97.28 99.84 97.28 59.904 0 97.28-37.376 99.84-97.28 0-45.056-25.088-276.48-34.816-376.32 82.432-27.648 137.216-109.568 137.216-199.168V63.488c-2.048-12.8-11.776-22.528-24.576-22.528z" fill="#2A394D" p-id="10741"></path><path d="M697.856 40.96c-12.288 0-22.528 9.728-22.528 22.528v249.344c0 5.12 2.56 12.288 7.68 14.848 5.12 5.12 9.728 7.68 14.848 7.68 12.288 0 22.528-9.728 22.528-22.528V63.488c0-12.8-10.24-22.528-22.528-22.528zM824.832 40.96c-12.288 0-22.528 9.728-22.528 22.528v249.344c0 12.288 9.728 22.528 22.528 22.528 12.288 0 22.528-9.728 22.528-22.528V63.488c0-12.8-9.728-22.528-22.528-22.528z" fill="#2A394D" p-id="10742"></path></svg>