<?xml version="1.0" standalone="no"?><!DOCTYPE svg PUBLIC "-//W3C//DTD SVG 1.1//EN" "http://www.w3.org/Graphics/SVG/1.1/DTD/svg11.dtd"><svg t="1611473758899" class="icon" viewBox="0 0 1024 1024" version="1.1" xmlns="http://www.w3.org/2000/svg" p-id="37490" xmlns:xlink="http://www.w3.org/1999/xlink" width="200" height="200"><defs><style type="text/css"></style></defs><path d="M845.9264 895.488H175.616a80.3328 80.3328 0 0 1-80.1792-80.2304V366.7968A80.3328 80.3328 0 0 1 175.616 286.72h670.3104a80.3328 80.3328 0 0 1 80.2304 80.2304v448.4608a80.3328 80.3328 0 0 1-80.2304 80.0768zM175.616 350.5664a16.2304 16.2304 0 0 0-16.1792 16.2304v448.4608a16.2304 16.2304 0 0 0 16.1792 16.2304h670.3104a16.2304 16.2304 0 0 0 16.2304-16.2304V366.7968a16.2304 16.2304 0 0 0-16.2304-16.2304zM736.256 256h-64V185.088a23.04 23.04 0 0 0-22.9888-22.9888H375.296a23.04 23.04 0 0 0-23.04 22.9888V256H288.256V185.088a87.04 87.04 0 0 1 87.04-87.04h273.9712a87.04 87.04 0 0 1 87.04 87.04z" fill="#2A394D" p-id="37491"></path><path d="M666.9312 547.84h-112.9984V434.8416a20.48 20.48 0 0 0-20.48-20.48H487.936a20.48 20.48 0 0 0-20.48 20.48V547.84H354.6112a20.48 20.48 0 0 0-20.48 20.48v45.7216a20.48 20.48 0 0 0 20.48 20.48h113.0496v113.0496a20.48 20.48 0 0 0 20.48 20.48h45.6704a20.48 20.48 0 0 0 20.48-20.48v-113.408h112.9984a20.48 20.48 0 0 0 20.48-20.48V568.32a20.48 20.48 0 0 0-20.8384-20.48z" fill="#2A394D" p-id="37492"></path></svg>