<?xml version="1.0" standalone="no"?><!DOCTYPE svg PUBLIC "-//W3C//DTD SVG 1.1//EN" "http://www.w3.org/Graphics/SVG/1.1/DTD/svg11.dtd"><svg t="1611475671143" class="icon" viewBox="0 0 1024 1024" version="1.1" xmlns="http://www.w3.org/2000/svg" p-id="2035" xmlns:xlink="http://www.w3.org/1999/xlink" width="200" height="200"><defs><style type="text/css"></style></defs><path d="M184.053695 1023.999c-88.489812 0-160.46266-71.077849-160.46266-158.459664V309.414514c0-87.369815 71.972847-158.459664 160.46266-158.459664h80.13983L584.855846 13.212142A162.074657 162.074657 0 0 1 648.99971 0.00217a158.614664 158.614664 0 0 1 146.14669 95.549798l23.70195 55.415882h25.648945a159.874661 159.874661 0 0 1 109.879768 47.2639 156.204669 156.204669 0 0 1 46.029902 111.489764v555.818822c0 87.381815-71.986847 158.459664-160.46266 158.459664z m0-815.274272c-56.339881 0-102.189783 45.316904-102.189783 101.026786v556.375821c0 55.709882 45.849903 101.026786 102.189783 101.026785h656.183609c56.339881 0 102.175783-45.316904 102.175784-101.026785V722.14964h-326.489308c-63.203866 0-114.613757-50.904892-114.613757-113.46576v-41.519912c0-62.559867 51.409891-113.46576 114.614757-113.465759H942.119089v-143.989695c0-55.709882-45.834903-101.026786-102.175784-101.026786z m431.871085 302.409359c-31.223934 0-56.57988 24.989947-56.57988 55.737882v41.504912c0 30.817935 25.397946 55.766882 56.62188 55.766882h326.446308V511.133087zM755.139485 150.98085l-13.909971-32.469931a100.928786 100.928786 0 0 0-93.182802-60.627872 102.259783 102.259783 0 0 0-40.623914 8.404983l-197.444582 84.74982z" fill="#2A394D" p-id="2036"></path><path d="M644.473719 631.896831A44.279906 44.279906 0 1 1 689.299624 587.629925a44.615905 44.615905 0 0 1-44.825905 44.265906z" fill="#2A394D" p-id="2037"></path></svg>