<?xml version="1.0" standalone="no"?><!DOCTYPE svg PUBLIC "-//W3C//DTD SVG 1.1//EN" "http://www.w3.org/Graphics/SVG/1.1/DTD/svg11.dtd"><svg t="1611475661211" class="icon" viewBox="0 0 1024 1024" version="1.1" xmlns="http://www.w3.org/2000/svg" p-id="1787" xmlns:xlink="http://www.w3.org/1999/xlink" width="200" height="200"><defs><style type="text/css"></style></defs><path d="M887.2 877.273H136.799c-41.24 0-74.793-33.554-74.793-74.795V643.775a26.383 26.383 0 0 1 16.273-24.367C121.857 601.33 150.016 559.17 150.016 512s-28.159-89.331-71.738-107.408a26.382 26.382 0 0 1-16.273-24.367V221.522c0-41.241 33.553-74.795 74.793-74.795h750.403c41.241 0 74.794 33.553 74.794 74.795v158.703a26.381 26.381 0 0 1-16.273 24.367C902.143 422.67 873.984 464.83 873.984 512s28.158 89.332 71.737 107.408a26.382 26.382 0 0 1 16.273 24.367v158.703c0 41.241-33.552 74.795-74.793 74.795zM114.768 660.356v142.122c0 12.148 9.883 22.032 22.03 22.032H887.2c12.148 0 22.032-9.884 22.032-22.032V660.356c-23.48-12.813-43.59-31.021-58.808-53.379C831.32 578.91 821.22 546.067 821.22 512c0-34.066 10.099-66.908 29.203-94.977 15.217-22.358 35.33-40.566 58.808-53.38v-142.12c0-12.15-9.884-22.034-22.032-22.034H136.798c-12.148 0-22.03 9.884-22.03 22.033v142.122c23.478 12.814 43.59 31.021 58.808 53.38 19.104 28.068 29.203 60.91 29.203 94.977 0 34.067-10.098 66.91-29.203 94.977-15.218 22.357-35.33 40.565-58.81 53.378z" fill="#2A394D" p-id="1788"></path><path d="M474.138 662.124v-62.051h-74.061c-16.013 0-24.02-7.318-24.02-22.019 1.315-12.01 9.32-19.327 24.02-22.018h74.06v-34.028h-74.06c-16.013 0-24.02-7.318-24.02-22.018 1.315-12.01 9.32-19.328 24.02-22.019h42.034l-64.052-90.073c-6.692-5.316-9.35-12.666-8.007-22.017 1.315-22.676 14.012-35.342 38.031-38.031 12.01 1.344 22.019 6.693 30.026 16.013l74.06 106.086 74.06-106.086c6.663-9.32 16.672-14.67 30.025-16.014 22.678 2.69 35.343 15.355 38.031 38.031 0 9.35-2.688 16.701-8.005 22.018l-64.053 90.073h42.035c13.324 2.69 21.332 10.008 24.02 22.019-1.344 14.7-9.35 22.018-24.02 22.018H550.2v34.028h74.062c13.324 2.691 21.332 10.009 24.02 22.018-1.344 14.7-9.35 22.019-24.02 22.019H550.2v62.051c-1.342 22.705-14.01 34.028-38.031 34.028-25.363 0-38.031-11.323-38.031-34.028z" fill="#2A394D" p-id="1789"></path></svg>