<?xml version="1.0" standalone="no"?><!DOCTYPE svg PUBLIC "-//W3C//DTD SVG 1.1//EN" "http://www.w3.org/Graphics/SVG/1.1/DTD/svg11.dtd"><svg t="1611475647693" class="icon" viewBox="0 0 1024 1024" version="1.1" xmlns="http://www.w3.org/2000/svg" p-id="1287" xmlns:xlink="http://www.w3.org/1999/xlink" width="200" height="200"><defs><style type="text/css"></style></defs><path d="M888.021 320H640a128 128 0 1 0-128-128 128 128 0 1 0-128 128H135.979C96.213 320 64 352.213 64 392.021V503.98C64 543.787 96.213 576 136.021 576H128v312.021C128 927.787 160.213 960 200.021 960h624C863.787 960 896 927.787 896 887.979V576h-8.021C927.787 576 960 543.787 960 503.979V392.02c0-39.807-32.213-72.02-72.021-72.02zM384 247.979A56.021 56.021 0 1 1 440.021 192v56.021H384z m91.99 640H199.978V576h276.053v312.021z m0-384H135.978V392.02h340.053v111.96zM583.978 192A56.021 56.021 0 1 1 640 248.021h-56.021V192zM824.02 888.021H547.968V576h276.053v312.021z m64-384H547.968V391.98h340.053v112.04z" fill="#2A394D" p-id="1288"></path></svg>