<?xml version="1.0" standalone="no"?><!DOCTYPE svg PUBLIC "-//W3C//DTD SVG 1.1//EN" "http://www.w3.org/Graphics/SVG/1.1/DTD/svg11.dtd"><svg t="1611475685681" class="icon" viewBox="0 0 1025 1024" version="1.1" xmlns="http://www.w3.org/2000/svg" p-id="2289" xmlns:xlink="http://www.w3.org/1999/xlink" width="200.1953125" height="200"><defs><style type="text/css"></style></defs><path d="M467.782 1000.727C209.455 1000.727 0 781.964 0 512S209.455 23.273 467.782 23.273c260.654 0 460.8 193.163 465.454 446.836v13.964l37.237-69.818c6.982-6.982 13.963-9.31 23.272-9.31 6.982 0 16.291 4.655 23.273 11.637 11.637 13.963 9.31 34.909 2.327 46.545L930.91 607.418c-9.309 4.655-16.29 6.982-23.273 6.982-9.309 0-18.618-2.327-23.272-9.31L768 484.074c-6.982-6.982-9.31-13.964-9.31-23.273s2.328-18.618 9.31-23.273c4.655-4.654 13.964-9.309 20.945-9.309 6.982 0 16.291 4.655 23.273 11.637l53.527 58.181v-9.309C854.11 265.31 677.236 90.764 465.455 90.764 244.364 90.764 65.164 279.273 65.164 512c0 111.71 41.89 216.436 116.363 295.564C256 886.69 356.073 930.909 463.127 930.909h4.655c90.763 0 181.527-32.582 253.673-95.418 4.654-4.655 11.636-6.982 18.618-6.982 11.636 0 18.618 4.655 25.6 13.964 11.636 16.29 9.309 37.236-4.655 48.872-83.782 72.146-186.182 109.382-293.236 109.382z" fill="#2A394D" p-id="2290"></path><path d="M642.327 544.582c20.946 0 37.237-16.291 37.237-37.237 0-20.945-16.291-37.236-37.237-37.236H542.255l76.8-107.054c11.636-16.291 6.981-39.564-9.31-51.2-6.981-4.655-13.963-6.982-20.945-6.982-11.636 0-23.273 4.654-30.255 16.29L470.11 446.837 384 321.164c-6.982-9.31-18.618-16.291-30.255-16.291-6.981 0-13.963 2.327-20.945 6.982-16.29 11.636-20.945 34.909-9.31 51.2l76.8 107.054h-97.745c-20.945 0-37.236 16.291-37.236 37.236 0 20.946 16.291 37.237 37.236 37.237H435.2v51.2h-76.8c-20.945 0-37.236 16.29-37.236 37.236 0 20.946 16.29 37.237 37.236 37.237h76.8v74.472c0 20.946 16.29 37.237 37.236 37.237 20.946 0 37.237-16.291 37.237-37.237v-76.8h76.8c20.945 0 37.236-16.29 37.236-37.236 0-20.946-16.29-37.236-37.236-37.236h-76.8v-51.2h132.654z" fill="#2A394D" p-id="2291"></path></svg>