<?xml version="1.0" standalone="no"?><!DOCTYPE svg PUBLIC "-//W3C//DTD SVG 1.1//EN" "http://www.w3.org/Graphics/SVG/1.1/DTD/svg11.dtd"><svg t="1610612747582" class="icon" viewBox="0 0 1024 1024" version="1.1" xmlns="http://www.w3.org/2000/svg" p-id="7825" xmlns:xlink="http://www.w3.org/1999/xlink" width="200" height="200"><defs><style type="text/css"></style></defs><path d="M770.7 926.7H255c-86.7 0-157.2-70.5-157.2-157.2V253.8c0-86.7 70.5-157.2 157.2-157.2h257.8c20.2 0 36.6 16.4 36.6 36.6s-16.4 36.6-36.6 36.6H255c-46.3 0-83.9 37.6-83.9 83.9v515.7c0 46.3 37.6 83.9 83.9 83.9h515.7c46.3 0 83.9-37.6 83.9-83.9V511.7c0-20.2 16.4-36.6 36.6-36.6 20.2 0 36.6 16.4 36.6 36.6v257.8c0.1 86.7-70.4 157.2-157.1 157.2z" fill="#515151" p-id="7826"></path><path d="M885.7 159.5L857 130.9c-50.8-45-110.2-41.5-163.9 10.2L319.5 519.5l-0.1 0.1c-6.9 7.1-11.9 15.8-14.5 25.3-11.3 42.1-37.7 140.8-39 146.5-3.1 13.9-1.9 42.2 14.9 59 12.5 12.5 30.8 16.4 44.9 16.4 5.5 0 10.3-0.6 13.9-1.5 5.3-1.2 94.5-25.1 147.2-39.2 9.4-2.5 18-7.5 25-14.5l375.3-379.8c34.5-35.1 41-68.2 40.4-89.8-0.7-21-8.7-52.5-41.8-82.5zM463 656.6c-18.6 5-87.5 23.5-120.7 32.2 9.1-34.2 27.6-103.4 32.3-120.8l77.8-78.8 88.5 88.5-77.9 78.9z m371.8-376.3L592.3 525.6l-88.5-88.5 240.7-243.8c32.1-30.8 47.9-21.6 62.2-9l28.4 28.3c12.3 11.1 18.7 21.7 19 31.5 0.4 13.2-10.3 27-19.3 36.2z" fill="#515151" p-id="7827"></path></svg>