<?xml version="1.0" standalone="no"?><!DOCTYPE svg PUBLIC "-//W3C//DTD SVG 1.1//EN" "http://www.w3.org/Graphics/SVG/1.1/DTD/svg11.dtd"><svg t="1611474714430" class="icon" viewBox="0 0 1024 1024" version="1.1" xmlns="http://www.w3.org/2000/svg" p-id="48483" xmlns:xlink="http://www.w3.org/1999/xlink" width="200" height="200"><defs><style type="text/css"></style></defs><path d="M758.6 191.5c-4.4-8.1-12.5-13.1-21.3-13H321.8c-13.6 0-24.6 11.7-24.6 26.1 0 14.4 11 26.1 24.6 26.1h415.5c8.8 0 16.9-5 21.3-13 4.4-8.2 4.4-18.2 0-26.2z" fill="#2A394D" p-id="48484"></path><path d="M533.7 83.6C465 53.5 386 70.2 333.4 126c-52.5 55.8-68.2 139.7-39.7 212.5 28.5 72.8 95.6 120.3 169.9 120.3 101.5-0.1 183.7-87.4 183.7-195.1-0.1-78.9-44.9-149.9-113.6-180.1z m-18.6 311.9c-50.3 22.1-108.1 9.9-146.6-30.9s-50-102.2-29.2-155.5S409.2 121 463.6 121c74.2 0.1 134.4 63.9 134.5 142.7 0 57.7-32.8 109.7-83 131.8z" fill="#2A394D" p-id="48485"></path><path d="M680.3 513.4c-96.2-79.8-232.4-98.8-348.6-48.5C215.6 515.2 141 625.4 141 746.9v0.1c0 13.3 11.3 24 25.2 24 14 0 25.3-10.8 25.4-24.1 0-102.7 63-195.9 161.1-238.4s213.3-26.4 294.5 41.1c10.6 7.9 25.8 6.6 34.6-3.1 8.9-9.7 8.2-24.2-1.5-33.1z" fill="#2A394D" p-id="48486"></path><path d="M761.9 541.9c-80.7 0-146.2 62.3-146.2 139.2s65.4 139.2 146.2 139.2c80.7-0.1 146.1-62.3 146.2-139.2 0-76.9-65.4-139.2-146.2-139.2z m0 230.4c-52.9 0-95.8-40.8-95.8-91.2s42.9-91.2 95.8-91.2c25.4 0 49.8 9.6 67.7 26.7 18 17.1 28.1 40.3 28 64.5 0.1 50.4-42.8 91.2-95.7 91.2z" fill="#2A394D" p-id="48487"></path><path d="M779.6 678.4V633c0-8.6-4.8-16.5-12.6-20.8s-17.4-4.3-25.2 0-12.6 12.2-12.6 20.8v55.4c-0.1 6.3 2.6 12.5 7.3 17l42.8 40.8c4.8 4.5 11.2 7 17.9 7 10.2 0.1 19.5-5.8 23.4-14.8 3.9-9 1.8-19.3-5.5-26.2l-35.5-33.8z" fill="#2A394D" p-id="48488"></path></svg>