<?xml version="1.0" standalone="no"?><!DOCTYPE svg PUBLIC "-//W3C//DTD SVG 1.1//EN" "http://www.w3.org/Graphics/SVG/1.1/DTD/svg11.dtd"><svg t="1610881510223" class="icon" viewBox="0 0 1024 1024" version="1.1" xmlns="http://www.w3.org/2000/svg" p-id="10505" xmlns:xlink="http://www.w3.org/1999/xlink" width="200" height="200"><defs><style type="text/css"></style></defs><path d="M375.281577 1024c-37.729352 0-72.336225-8.841014-102.904788-26.299493-32.638197-18.641127-58.101183-47.385239-79.662874-80.448901-2.877296-5.17769-3.172958-5.754592-6.057464-11.069296-32.544451-59.56507 4.023887-153.852394 93.075831-223.981972 48.539042-38.205296 102.198085-60.127549 147.23245-60.127549 33.481915 0 60.567437 12.280789 76.973071 34.715042 3.519099 2.300394 9.374648 5.300282 14.184563 5.300282 1.370141 0 4.247437 0 8.552564-4.860395 0.281239-0.295662 0.562479-0.584113 0.836507-0.908619a882.522141 882.522141 0 0 0 68.932507-104.10186 891.839099 891.839099 0 0 0 49.995718-103.366309c1.954254-11.069296 0.475944-16.593127-0.771606-18.136338-0.90862-1.117746-3.605634-1.838873-3.634479-1.838874-24.539944-0.584113-46.462197-11.624563-63.906253-31.924281-32.840113-38.205296-46.793915-105.378254-37.325521-179.704789C555.289239 103.330254 617.774873 17.408 686.144901 17.408l1.947043 0.028845c3.194592 0.079324 6.381972 0.374986 9.533295 0.865352 41.962366-1.867718 80.571493 6.872338 114.11831 26.032676 155.294648 88.720225 158.554141 367.579944 7.456451 634.843944C702.536113 885.435493 524.165408 1024 375.281577 1024z m51.668733-345.304338c-32.097352 0-74.045296 17.941634-112.207324 47.998197-66.574423 52.404282-95.938704 121.279099-80.917634 149.44631 2.300394 4.312338 3.915718 7.016563 5.17769 9.201577 14.956169 25.874028 37.325521 49.404394 61.461634 63.206761 21.893408 12.518761 47.060732 18.82862 74.816901 18.82862 127.113014 0 289.366535-129.961465 394.586141-316.055437 131.043155-231.755718 137.338592-487.207662 13.744676-557.813183-24.799549-14.141296-54.055662-20.386254-86.030422-18.468056a29.12631 29.12631 0 0 1-6.99493-0.468733 24.431775 24.431775 0 0 0-3.930141-0.533633c-33.626141 0-78.783099 64.324507-89.744225 150.405408-7.254535 56.904113 2.199437 110.144901 24.092845 135.62231 10.268845 11.934648 18.980056 12.129352 21.828507 12.208676 2.466254 0 28.974873 0.822085 46.793916 22.838084 13.593239 16.78062 17.552225 39.524958 11.768788 67.533522a29.948394 29.948394 0 0 1-1.449464 4.845971 949.904225 949.904225 0 0 1-54.264789 112.625578 937.875831 937.875831 0 0 1-75.480338 113.512563 28.477296 28.477296 0 0 1-4.074366 4.261859c-13.384113 13.636507-29.912338 20.826141-48.048676 20.826141-28.736901 0-51.041352-18.590648-53.493184-20.732394a28.390761 28.390761 0 0 1-5.458929-6.389183c-6.634366-10.672676-21.16507-12.900958-32.176676-12.900958z" fill="#2A394D" p-id="10506"></path><path d="M337.645972 488.022535a28.592676 28.592676 0 0 1-28.059042-23.43662 98.743887 98.743887 0 0 1 15.944112-74.326535 98.671775 98.671775 0 0 1 63.82693-41.255662 28.55662 28.55662 0 0 1 33.251155 22.960676 28.534986 28.534986 0 0 1-22.960676 33.236733 41.890254 41.890254 0 0 0-27.099944 17.537803 41.846986 41.846986 0 0 0-6.778592 31.549295 28.534986 28.534986 0 0 1-22.946253 33.236733c-1.730704 0.324507-3.475831 0.497577-5.17769 0.497577z" fill="#2A394D" p-id="10507"></path><path d="M241.108732 485.960113a28.542197 28.542197 0 0 1-28.044619-23.414986c-17.364732-94.633465 45.503099-185.733408 140.136563-203.076507a28.599887 28.599887 0 0 1 33.251155 22.960676 28.549408 28.549408 0 0 1-22.946254 33.229521c-63.639437 11.667831-105.911887 72.934761-94.244056 136.566986a28.55662 28.55662 0 0 1-22.960676 33.251155 28.282592 28.282592 0 0 1-5.192113 0.483155z" fill="#2A394D" p-id="10508"></path><path d="M130.538366 517.148845a28.563831 28.563831 0 0 1-28.059042-23.414986c-14.436958-78.718197 2.653746-158.337803 48.113577-224.205521 45.45262-65.867718 113.83707-110.08 192.555268-124.516958a28.578254 28.578254 0 0 1 10.276056 56.211831c-63.697127 11.667831-119.043606 47.464563-155.835493 100.755831-36.777465 53.327324-50.601465 117.752789-38.940845 181.478761a28.578254 28.578254 0 0 1-22.946253 33.251155 29.941183 29.941183 0 0 1-5.163268 0.439887z" fill="#2A394D" p-id="10509"></path></svg>