<?xml version="1.0" standalone="no"?><!DOCTYPE svg PUBLIC "-//W3C//DTD SVG 1.1//EN" "http://www.w3.org/Graphics/SVG/1.1/DTD/svg11.dtd"><svg t="1610612714512" class="icon" viewBox="0 0 1024 1024" version="1.1" xmlns="http://www.w3.org/2000/svg" p-id="7456" xmlns:xlink="http://www.w3.org/1999/xlink" width="200" height="200"><defs><style type="text/css"></style></defs><path d="M848.8 139.4h-40.5c-20.7 0.9-36.7 18.3-35.9 39 0.9 20.7 18.3 36.7 39 35.9h37.4c20.7 0 37.4 16.8 37.4 37.4v110.7H137.9V251.6c0-20.6 16.7-37.4 37.4-37.4h40.5c20.7-0.9 36.7-18.3 35.9-38.9-0.9-20.7-18.3-36.7-39-35.9h-37.4c-62 0-112.2 50.2-112.2 112.2v597.1c0 62 50.2 112.2 112.2 112.2h673.5c62 0 112.2-50.3 112.2-112.2V251.6c0-62-50.2-112.2-112.2-112.2z m0 746.7H175.2c-20.7 0-37.4-16.8-37.4-37.4V437.1h748.3v411.6c0.1 20.7-16.6 37.4-37.3 37.4z" fill="#515151" p-id="7457"></path><path d="M326.5 253c20.7-0.9 36.7-18.3 35.9-39V101.9v-3.1c-0.9-20.7-18.3-36.7-38.9-35.9-20.7 0.9-36.7 18.3-35.9 39v115.3c0.8 20.7 18.2 36.7 38.9 35.8zM699.1 251.5c20.7 0 37.4-16.8 37.4-37.4V101.9c0-20.7-16.8-37.4-37.4-37.4-20.7 0-37.4 16.8-37.4 37.4v112.2c0 20.7 16.7 37.4 37.4 37.4zM437.2 214.1h152.7c20.7-0.9 36.7-18.3 35.9-38.9-0.9-20.7-18.3-36.7-39-35.9H434.1c-20.7 0.9-36.7 18.3-35.9 39 0.9 20.6 18.4 36.7 39 35.8zM660 507.6c-1.9 1.3-3.7 2.9-5.3 4.5L478.5 684.8l-87-85.2c-12.4-13.1-34.6-15-50-4.4-2 1.4-3.8 2.9-5.5 4.7-15 15.5-15 38.6 0.1 54.1L451 766.4c12.5 13.1 34.6 15 50 4.3 1.9-1.3 3.7-2.9 5.3-4.5l203.8-199.7c15.3-15.8 15.2-38.9 0.1-54.5-12.7-13.2-34.9-15.1-50.2-4.4z" fill="#515151" p-id="7458"></path></svg>