<?xml version="1.0" standalone="no"?><!DOCTYPE svg PUBLIC "-//W3C//DTD SVG 1.1//EN" "http://www.w3.org/Graphics/SVG/1.1/DTD/svg11.dtd"><svg t="1611473305000" class="icon" viewBox="0 0 1024 1024" version="1.1" xmlns="http://www.w3.org/2000/svg" p-id="35285" xmlns:xlink="http://www.w3.org/1999/xlink" width="200" height="200"><defs><style type="text/css"></style></defs><path d="M514.39 638.79c-3.4 0-6.79-1.02-9.71-3.05-2.18-1.52-54-37.75-106.64-88.92-72.76-70.73-109.65-133.28-109.65-185.92 0-60.37 23.51-117.12 66.19-159.8 42.69-42.69 99.44-66.19 159.8-66.19 60.37 0 117.12 23.51 159.8 66.19 42.69 42.69 66.19 99.44 66.19 159.8 0 52.64-36.89 115.19-109.65 185.92-52.64 51.18-104.46 87.41-106.64 88.92-2.9 2.03-6.29 3.05-9.69 3.05z m0-469.89c-105.87 0-192 86.13-192 192 0 42.5 34.35 98.36 99.35 161.54 37.54 36.49 75.36 65.59 92.65 78.36 17.35-12.83 55.39-42.1 92.97-78.67 64.79-63.06 99.03-118.81 99.03-161.23 0-105.87-86.13-192-192-192zM789.42 908.98h-457.2c-9.39 0-17-7.61-17-17s7.61-17 17-17h457.2c16.6 0 30.11-13.51 30.11-30.11s-13.51-30.11-30.11-30.11H239.36c-35.35 0-64.11-28.76-64.11-64.11 0-35.35 28.76-64.11 64.11-64.11H348.6c9.39 0 17 7.61 17 17s-7.61 17-17 17H239.36c-16.6 0-30.11 13.51-30.11 30.11s13.51 30.11 30.11 30.11h550.05c35.35 0 64.11 28.76 64.11 64.11s-28.76 64.11-64.1 64.11z" fill="#2A394D" p-id="35286"></path><path d="M514.39 403.84c-38.17 0-69.23-31.06-69.23-69.23s31.06-69.23 69.23-69.23 69.23 31.06 69.23 69.23-31.06 69.23-69.23 69.23z m0-104.46c-19.43 0-35.23 15.8-35.23 35.23s15.8 35.23 35.23 35.23 35.23-15.8 35.23-35.23-15.81-35.23-35.23-35.23z" fill="#2A394D" p-id="35287"></path></svg>