<?xml version="1.0" standalone="no"?><!DOCTYPE svg PUBLIC "-//W3C//DTD SVG 1.1//EN" "http://www.w3.org/Graphics/SVG/1.1/DTD/svg11.dtd"><svg t="1611473402964" class="icon" viewBox="0 0 1024 1024" version="1.1" xmlns="http://www.w3.org/2000/svg" p-id="36405" xmlns:xlink="http://www.w3.org/1999/xlink" width="200" height="200"><defs><style type="text/css"></style></defs><path d="M844.3 305.8c46.6-77.9 56.8-128.3 31.2-153.9-12.6-12.6-30.2-17.2-52.1-13.7-20.9 3.4-46.7 14.1-79 32.9-6.4 3.8-11 9.6-13 16.3-2.1 7.1-1.2 14.5 2.7 20.9 7.2 12 22.1 16.4 36.3 10.8l0.7-0.3c40.5-22.4 59.7-25.6 66.6-25.9 0.2 3.8-0.9 12.6-8.9 31-9.4 21.5-25.4 49.1-46.2 79.9-36.4 53.9-103.9 142-219.1 256-113.2 114.4-201.7 181.8-256 218.3-69.5 46.7-101.4 55.4-111 55.6 0.7-10.3 8.9-42.3 45.9-100.2l0.3-0.6c5.1-10.2 5-20.7-0.4-28.7l-0.1-0.2c-38.3-53.6-59.4-121.1-59.4-190.1 0-45 8.9-88.8 26.4-130 16.9-39.8 41.1-75.6 71.9-106.4 30.8-30.8 66.6-55 106.4-71.9 41.3-17.5 85-26.4 130-26.4 49.9 0 97.2 11 144.6 33.7l0.4 0.2c13.9 5.6 29.5-0.6 34.7-13.7 2.6-6.5 2.7-13.6 0.3-20.1-2.5-6.8-7.4-11.9-13.9-14.6-56.6-26.1-111.6-38.9-168-38.9-52.2 0-102.9 10.3-150.8 30.6-46.2 19.6-87.7 47.7-123.4 83.4S177.7 317 158 363.2c-20.3 47.8-30.6 98.6-30.6 150.8 0 72.1 20.5 143.2 59.4 206-48 77-57.9 125.3-31.3 152l0.3 0.3 0.4 0.3c8.8 6.6 20.3 13.4 38.2 13.4 27 0 65.7-15.9 115-47.2 29.4 19.1 61.9 33.8 96.7 43.9 35.3 10.2 72 15.4 109.3 15.4 52.2 0 102.9-10.3 150.8-30.6 46.2-19.6 87.7-47.7 123.4-83.4s63.7-77.2 83.4-123.4c20.3-47.8 30.6-98.6 30.6-150.8 0.1-72.7-20.9-145-59.3-204.1zM517.6 846.7c-53.4 0-106.3-13-157.2-38.8 76.9-55 162.7-128.7 242.5-208.6 40.7-40.7 140.7-144.1 209-242.8 25.2 45.6 38.4 99.8 38.4 157.4 0 44.6-8.8 87.9-26.1 128.8-16.7 39.6-40.7 75.2-71.2 105.8-62.9 63.4-146.5 98.2-235.4 98.2z" fill="#2A394D" p-id="36406"></path><path d="M339.9 448.9c-19.3 0-37.6 7.7-51.5 21.6s-21.6 32.2-21.6 51.5c0 19.3 7.7 37.6 21.6 51.5 13.9 13.9 32.2 21.6 51.5 21.6 19.1 0 38.2-7.8 52.5-21.5 14.6-14.1 22.7-32.4 22.7-51.6 0-40.3-33.7-73.1-75.2-73.1z m21.8 75.2c0 10.9-9.8 19.8-21.8 19.8-10.5 0-19.8-9.2-19.8-19.8 0-10.5 9.2-19.7 19.8-19.7 11-0.1 21.8 9.7 21.8 19.7zM483.3 407.4c45.9 0 83.2-37.3 83.2-83.2S529.2 241 483.3 241c-45.9 0-83.2 37.3-83.2 83.2 0 45.1 38.1 83.2 83.2 83.2z m-29.9-85.3c0-16.7 13.1-29.8 29.8-29.8 16.7 0 29.8 13.1 29.8 29.8 0 16.7-13.1 29.8-29.8 29.8-16.7 0.1-29.8-13-29.8-29.8zM630.7 648.8c-27 0-48.9 21.9-48.9 48.9v0.1c0 27 21.9 48.9 48.9 48.9 26.9 0 48.9-21.9 48.9-48.9s-21.9-49-48.9-49z" fill="#2A394D" p-id="36407"></path></svg>