<?xml version="1.0" standalone="no"?><!DOCTYPE svg PUBLIC "-//W3C//DTD SVG 1.1//EN" "http://www.w3.org/Graphics/SVG/1.1/DTD/svg11.dtd"><svg t="1611475136752" class="icon" viewBox="0 0 1024 1024" version="1.1" xmlns="http://www.w3.org/2000/svg" p-id="51825" xmlns:xlink="http://www.w3.org/1999/xlink" width="200" height="200"><defs><style type="text/css"></style></defs><path d="M822.165333 173.077333V130.133333a25.6 25.6 0 0 0-25.6-25.6H231.936a25.6 25.6 0 0 0-25.6 25.6v42.666667h-5.013333a119.168 119.168 0 0 0-119.04 119.04v514.794667a119.189333 119.189333 0 0 0 119.04 119.061333h617.28a119.210667 119.210667 0 0 0 119.04-119.061333V291.946667a119.104 119.104 0 0 0-115.541334-118.869334z m64.192 118.869334v154.752h-64.192V224.576a67.648 67.648 0 0 1 64.192 67.349333zM257.493333 155.797333h513.408v290.901334H257.536zM201.173333 224.213333h5.013334v222.485334H137.770667a25.962667 25.962667 0 0 0-4.266667 0.426666v-155.178666a67.797333 67.797333 0 0 1 67.690667-67.712z m617.493334 650.24H201.173333a67.776 67.776 0 0 1-67.690666-67.712V497.6a26.048 26.048 0 0 0 4.266666 0.405333h748.586667v308.736a67.776 67.776 0 0 1-67.690667 67.712z m0 0" fill="#2A394D" p-id="51826"></path><path d="M570.282667 285.674667a15.914667 15.914667 0 1 0 0-31.829334h-33.6l32-32a15.936 15.936 0 1 0-22.528-22.528l-39.445334 39.466667-39.424-39.466667a15.914667 15.914667 0 1 0-22.485333 22.528l31.872 32h-33.621333a15.914667 15.914667 0 0 0 0 31.829334h47.744v31.808h-47.744a15.914667 15.914667 0 0 0 0 31.829333h47.744v42.432a15.936 15.936 0 0 0 31.850666 0v-42.538667h47.744a15.914667 15.914667 0 1 0 0-31.829333h-47.744v-31.808z m0 0" fill="#2A394D" p-id="51827"></path></svg>