<?xml version="1.0" standalone="no"?><!DOCTYPE svg PUBLIC "-//W3C//DTD SVG 1.1//EN" "http://www.w3.org/Graphics/SVG/1.1/DTD/svg11.dtd"><svg t="1610690883599" class="icon" viewBox="0 0 1024 1024" version="1.1" xmlns="http://www.w3.org/2000/svg" p-id="18334" xmlns:xlink="http://www.w3.org/1999/xlink" width="200" height="200"><defs><style type="text/css"></style></defs><path d="M589.19 323.39a513.405 513.405 0 0 0-20.46-60.99c-72.63 16.05-96.285-47.01-65.85-91.125a84.165 84.165 0 0 0-50.55-35.145c-30.495 46.635-113.67 23.145-106.275-40.59h-71.115c5.985 68.295-76.29 82.71-111.24 40.53-17.22 11.34-40.725 16.215-45.75 40.38 33.39 40.065 2.895 102.675-65.85 85.95C44.66 281.705 37.31 301.97 32 323.39c57.585 9.12 57.585 97.245 0 106.365 5.37 21.27 12.66 41.55 20.115 60.795 72.63-16.005 96.96 47.07 65.85 91.17 11.505 17.22 27.87 29.535 50.91 35.355 30.495-46.71 113.475-23.22 106.065 40.665h71.115c-6.18-68.565 76.245-82.86 111.45-40.665 17.175-11.355 40.83-16.56 45.375-40.53-33.075-40.26-2.625-102.51 65.85-85.95a543.12 543.12 0 0 0 20.415-60.795c-60.045-14.79-60.045-91.83 0-106.41h0.045zM310.595 482.135a105.57 105.57 0 1 1 0-211.14 105.57 105.57 0 0 1 0 211.14z m0 0" fill="#0b988f" p-id="18335"></path><path d="M992 549.23a374.61 374.61 0 0 0-14.79-44.085c-52.515 11.61-69.6-33.975-47.61-65.88a60.735 60.735 0 0 0-36.54-25.395c-22.065 33.735-82.185 16.725-76.83-29.34h-51.42c4.32 49.365-55.14 59.79-80.4 29.295-12.45 8.205-29.445 11.715-33.075 29.19 24.135 28.965 2.1 74.22-47.595 62.13-5.385 13.965-10.71 28.605-14.55 44.085 41.625 6.585 41.625 70.32 0 76.905 3.885 15.36 9.15 30.03 14.55 43.95 52.5-11.58 70.095 34.02 47.595 65.925 8.34 12.45 20.145 21.33 36.81 25.545 22.05-33.765 82.02-16.77 76.665 29.4h51.42c-4.47-49.59 55.11-59.91 80.565-29.4 12.405-8.205 29.52-11.97 32.805-29.295-23.91-29.1-1.905-74.1 47.61-62.145 5.61-13.95 10.62-28.635 14.76-43.95-43.41-10.695-43.41-66.39 0-76.935H992z m-201.42 114.78c-42.135 0-76.29-34.17-76.29-76.32s34.155-76.305 76.29-76.305a76.305 76.305 0 1 1 0 152.625z m0 0" fill="#0b988f" p-id="18336"></path><path d="M657.77 760.595a259.44 259.44 0 0 0-10.275-30.63c-36.48 8.055-48.345-23.595-33.075-45.75a42.135 42.135 0 0 0-25.35-17.64c-15.315 23.43-57.09 11.595-53.37-20.385h-35.715c3.015 34.29-38.295 41.535-55.845 20.34-8.655 5.715-20.445 8.145-22.965 20.28 16.755 20.13 1.44 51.555-33.075 43.155-3.735 9.69-7.425 19.86-10.095 30.63 28.92 4.59 28.92 48.825 0 53.415 2.685 10.68 6.36 20.85 10.095 30.51 36.465-8.025 48.69 23.625 33.075 45.78 5.775 8.655 13.98 14.82 25.56 17.76 15.315-23.46 56.97-11.64 53.25 20.4h35.715c-3.105-34.425 38.265-41.58 55.935-20.4 8.625-5.7 20.49-8.31 22.785-20.355-16.59-20.205-1.305-51.48 33.075-43.14 3.885-9.69 7.365-19.905 10.26-30.525-30.15-7.44-30.15-46.11 0.015-53.445z m-139.875 79.695a52.995 52.995 0 1 1 0-105.975 52.995 52.995 0 0 1 0 105.975z m0 0" fill="#0b988f" p-id="18337"></path></svg>